<svg version="1.1" id="Layer_1" xmlns="http://www.w3.org/2000/svg" xmlns:xlink="http://www.w3.org/1999/xlink" x="0px" y="0px"
	 width="100%" viewBox="0 0 744 345" enable-background="new 0 0 744 345" xml:space="preserve">
<path fill="#303A46" opacity="1.000000" stroke="none" 
	d="
M745.000000,232.000000 
	C745.000000,269.992432 745.000000,307.984833 745.000000,345.982971 
	C497.057007,345.988647 249.114014,345.988647 1.085507,345.988647 
	C1.085507,231.079987 1.085507,116.159882 1.085507,1.119890 
	C248.999969,1.119890 496.999969,1.119890 745.000000,1.115859 
	C745.000000,73.431213 745.000000,145.750595 744.625793,218.480927 
	C744.132690,218.780258 744.027710,218.644775 743.890381,218.564926 
	C743.789795,218.506500 743.646729,218.521179 743.522583,218.503265 
	C743.427856,222.821274 743.311523,227.139297 743.313354,231.457260 
	C743.313416,231.638412 744.412781,231.819092 745.000000,232.000000 
M241.465744,81.505005 
	C245.297562,82.770294 244.693466,79.882820 244.713898,77.876717 
	C244.788528,70.546906 244.725433,63.215786 244.763535,55.885414 
	C244.770340,54.576321 245.011444,53.268440 245.144379,51.959995 
	C249.119080,59.142693 251.924011,66.429924 255.105942,73.548645 
	C256.435272,76.522667 258.565796,79.138550 260.332031,81.917259 
	C261.963409,79.194229 263.898376,76.604889 265.167725,73.722435 
	C268.607330,65.911819 271.764404,57.976799 275.033539,50.091106 
	C276.430969,60.778763 275.405701,71.324081 277.249359,81.763779 
	C278.419464,81.115906 278.967072,80.434120 278.970734,79.749413 
	C279.033478,68.088028 279.065186,56.425976 278.966736,44.765217 
	C278.959229,43.875862 277.935608,42.273319 277.365967,42.265068 
	C276.277069,42.249290 274.773376,42.861279 274.168213,43.722908 
	C273.140625,45.185959 272.666412,47.040459 271.976257,48.737221 
	C268.235443,57.934120 264.499756,67.133080 260.312622,77.438034 
	C259.140350,74.897369 258.413574,73.478500 257.818329,72.006432 
	C254.259369,63.205170 250.722580,54.394913 247.196396,45.580456 
	C245.983780,42.549255 244.425568,40.466633 240.474731,43.694073 
	C240.314880,54.708729 240.119049,65.723122 240.039749,76.738358 
	C240.029617,78.146179 240.626678,79.558357 241.465744,81.505005 
M689.899109,133.500061 
	C689.898926,127.334305 689.651489,121.155373 689.979248,115.007103 
	C690.227844,110.346237 688.478943,109.019211 683.933228,109.021004 
	C463.962067,109.107811 243.990906,109.106926 24.019772,109.015411 
	C19.432125,109.013504 18.003424,110.422112 18.014910,115.028412 
	C18.149122,168.854355 18.098993,222.680740 18.103815,276.507019 
	C18.104387,282.880798 18.121578,282.892578 24.552391,282.892639 
	C244.190262,282.894592 463.828125,282.894592 683.466003,282.891632 
	C689.882080,282.891541 689.896118,282.875153 689.896729,276.481415 
	C689.900940,229.154282 689.899048,181.827164 689.899109,133.500061 
M352.243866,65.590927 
	C356.546417,65.427689 360.848175,65.237038 365.151733,65.107178 
	C372.998108,64.870415 377.918793,60.415722 377.963531,53.462242 
	C378.009308,46.348854 373.467102,42.167686 365.246979,41.914261 
	C361.092194,41.786171 356.920227,42.046967 352.775848,41.799648 
	C349.034698,41.576385 347.819092,43.081505 347.878479,46.723801 
	C348.043854,56.867332 347.895050,67.015663 347.985748,77.161064 
	C347.999512,78.699837 348.628754,80.233093 348.973328,81.768898 
	C349.561371,81.726860 350.149445,81.684814 350.737488,81.642769 
	C351.041016,76.513626 351.344543,71.384476 352.243866,65.590927 
M306.427856,79.929810 
	C307.300110,80.524178 308.172363,81.118546 309.044617,81.712921 
	C309.401459,80.857841 310.052338,80.007881 310.067322,79.146843 
	C310.162842,73.660561 310.058319,68.170967 310.138367,62.684204 
	C310.204468,58.152260 308.367584,55.034382 303.973175,53.541416 
	C299.118500,51.892090 292.382202,53.070545 290.038574,56.242344 
	C289.168518,57.419903 288.813721,58.978199 288.129700,60.584099 
	C292.420532,58.885014 295.916962,56.674591 299.625397,56.229229 
	C304.939636,55.591019 307.102509,58.567478 306.163635,63.880169 
	C303.948761,64.201164 301.647400,64.435036 299.390564,64.889801 
	C297.135773,65.344162 294.777679,65.703453 292.726135,66.662994 
	C288.264862,68.749588 286.381073,72.690903 287.437622,76.777016 
	C288.648346,81.459366 292.118073,83.323738 296.438843,82.889076 
	C299.616577,82.569405 302.669983,81.014313 306.427856,79.929810 
M448.018860,77.208458 
	C448.422272,78.829620 448.825653,80.450790 449.229065,82.071953 
	C450.044556,81.992981 450.860016,81.914001 451.675507,81.835030 
	C451.675507,75.658592 451.911682,69.470970 451.619965,63.308338 
	C451.185303,54.126312 445.738770,50.680927 437.025543,53.672421 
	C435.674469,54.136280 434.052185,54.829590 432.835785,54.469475 
	C429.564850,53.501118 428.960693,55.151527 428.956177,57.716587 
	C428.944183,64.545006 428.879364,71.375755 429.057098,78.199814 
	C429.088867,79.417992 430.182648,80.608521 430.786011,81.811821 
	C431.476166,80.543472 432.692444,79.303154 432.761780,78.001717 
	C433.009613,73.351212 432.758392,68.676468 432.907410,64.017654 
	C433.038177,59.928421 436.668518,56.744118 441.276550,56.373608 
	C445.928925,55.999535 447.492462,58.945389 447.744934,62.801914 
	C448.038055,67.279572 447.943298,71.782623 448.018860,77.208458 
M391.589661,53.571617 
	C384.058075,58.237370 381.239136,68.987091 385.529846,76.680084 
	C388.933929,82.783447 395.250275,84.806664 401.744446,82.096016 
	C409.396149,78.902199 410.258667,70.737877 408.663574,62.227791 
	C407.308228,54.996910 401.461853,52.121891 391.589661,53.571617 
M326.491150,75.113480 
	C327.469055,73.878456 328.446930,72.643440 329.405304,71.433105 
	C333.859467,74.403229 334.401581,80.843887 340.403870,81.542122 
	C339.600372,79.310570 338.375000,77.440071 337.101013,75.603302 
	C330.720337,66.403831 330.657532,69.675362 336.945099,60.551514 
	C338.269073,58.630310 339.499084,56.644367 340.772369,54.688251 
	C334.192535,55.078915 333.899445,61.827511 329.589691,64.214325 
	C325.396545,61.637856 324.909607,55.093243 318.815491,54.443798 
	C320.555481,58.047764 322.607239,61.388927 325.107727,64.351318 
	C327.234711,66.871162 327.165497,68.899399 325.227295,71.404762 
	C322.788788,74.556892 320.607910,77.908333 318.315826,81.173759 
	C318.951050,81.673264 319.586273,82.172768 320.221527,82.672272 
	C322.180389,80.348137 324.139282,78.024010 326.491150,75.113480 
M461.557587,79.566559 
	C463.535675,84.022560 466.717743,83.458229 470.931793,81.628555 
	C463.508453,79.323830 464.919281,73.662018 465.104095,68.730461 
	C465.284760,63.910591 462.723999,58.039841 468.470062,56.083405 
	C467.179321,53.161533 466.109589,50.646091 464.951660,48.171917 
	C464.569855,47.356152 463.960266,46.646996 463.454803,45.889107 
	C462.714661,46.622021 461.639343,47.226040 461.298431,48.112476 
	C460.350952,50.576324 459.708771,53.157566 459.180969,54.911457 
	C459.904205,57.968769 460.897675,60.581528 461.072845,63.248039 
	C461.410706,68.391731 461.286346,73.565796 461.557587,79.566559 
M416.865143,66.513580 
	C417.195892,71.603760 416.171234,76.838646 417.707703,82.831985 
	C420.858002,78.331017 420.859589,57.631420 417.326447,54.196587 
	C417.170013,57.972908 417.013580,61.749226 416.865143,66.513580 
z"/>
<path fill="#FEFEFE" opacity="1.000000" stroke="none" 
	d="
M745.000000,231.536819 
	C744.412781,231.819092 743.313416,231.638412 743.313354,231.457260 
	C743.311523,227.139297 743.427856,222.821274 743.522583,218.503265 
	C743.646729,218.521179 743.789795,218.506500 743.890381,218.564926 
	C744.027710,218.644775 744.132690,218.780258 744.625793,218.945953 
	C745.000000,223.024551 745.000000,227.049088 745.000000,231.536819 
z"/>
<path fill="#FEFEFE" opacity="1.000000" stroke="none" 
	d="
M689.899109,134.000046 
	C689.899048,181.827164 689.900940,229.154282 689.896729,276.481415 
	C689.896118,282.875153 689.882080,282.891541 683.466003,282.891632 
	C463.828125,282.894592 244.190262,282.894592 24.552391,282.892639 
	C18.121578,282.892578 18.104387,282.880798 18.103815,276.507019 
	C18.098993,222.680740 18.149122,168.854355 18.014910,115.028412 
	C18.003424,110.422112 19.432125,109.013504 24.019772,109.015411 
	C243.990906,109.106926 463.962067,109.107811 683.933228,109.021004 
	C688.478943,109.019211 690.227844,110.346237 689.979248,115.007103 
	C689.651489,121.155373 689.898926,127.334305 689.899109,134.000046 
M400.963318,233.011978 
	C400.963318,233.011978 400.900116,233.045975 400.591492,232.567337 
	C400.059296,232.437897 399.527069,232.308472 398.073242,232.000961 
	C369.230255,231.993179 340.387207,231.970917 311.544312,232.018265 
	C310.019440,232.020767 308.495514,232.612518 306.448883,233.153427 
	C306.078918,233.792679 305.708954,234.431931 305.054352,235.961456 
	C305.152100,245.277573 305.249878,254.593704 305.430725,264.491425 
	C306.300751,265.212677 307.170746,265.933929 308.936096,266.943756 
	C338.953735,266.908661 368.971375,266.873566 399.581726,266.901428 
	C400.047211,266.573425 400.512726,266.245422 401.704010,265.605469 
	C402.140686,263.904480 402.920441,262.210297 402.954437,260.501343 
	C403.098816,253.237732 403.083038,245.968826 402.977081,238.704025 
	C402.954681,237.166550 402.307220,235.638199 401.984711,234.042572 
	C401.984711,234.042572 401.912231,234.032700 401.835876,233.527710 
	C401.547943,233.379547 401.260040,233.231384 400.963318,233.011978 
M75.661484,215.009888 
	C76.180283,214.829254 76.699089,214.648605 77.217888,214.467972 
	C76.809837,214.252991 76.401787,214.038025 76.434883,213.064743 
	C75.075584,212.403961 73.731468,211.702881 72.323189,211.172073 
	C72.228310,211.136307 71.649025,212.385727 71.295036,213.037399 
	C72.560104,213.664154 73.825172,214.290909 75.661484,215.009888 
M102.533623,197.727722 
	C102.259026,197.434387 101.984436,197.141068 102.051331,196.021011 
	C108.372864,193.267151 109.160103,199.129105 112.291916,203.267334 
	C112.291916,193.162170 112.123642,184.077408 112.370819,175.003937 
	C112.476692,171.117874 110.728455,170.057449 107.355988,170.092529 
	C103.216370,170.135574 99.075592,170.066406 94.986252,170.093048 
	C94.986252,170.093048 95.044640,170.055344 95.211548,169.533432 
	C94.872154,169.419373 94.532753,169.305313 93.916733,168.503494 
	C91.331482,165.312851 89.187782,167.687500 86.251747,169.117783 
	C85.455055,169.555679 84.658363,169.993576 83.095955,170.240372 
	C81.999977,171.210526 79.978645,172.156189 79.952225,173.154648 
	C79.707924,182.385284 79.808022,191.625061 79.808022,201.132431 
	C81.444717,200.970306 82.572495,200.858597 84.019836,201.603241 
	C84.596832,203.207184 84.827057,205.831940 85.832855,206.173630 
	C87.307396,206.674545 89.337051,205.541397 91.819717,205.050812 
	C92.594063,204.731476 93.368408,204.412140 94.670181,204.421570 
	C96.440979,204.918900 98.211777,205.416229 100.738319,206.090164 
	C102.015457,206.425751 103.292595,206.761337 105.208679,207.264816 
	C104.205208,203.772461 103.422592,201.048752 102.533623,197.727722 
M666.952881,142.151535 
	C666.937134,135.734421 666.921326,129.317307 666.276428,122.390167 
	C664.793762,122.261032 663.311157,122.018875 661.828491,122.018768 
	C457.011963,122.003723 252.195450,122.004112 47.378929,122.044525 
	C45.621792,122.044876 43.864758,122.595276 42.054325,123.838341 
	C42.072113,130.262589 42.089901,136.686829 42.735664,143.617889 
	C44.385818,143.742828 46.035961,143.977051 47.686127,143.977203 
	C252.336914,143.995071 456.987701,143.997955 661.638489,143.960098 
	C663.394287,143.959778 665.149902,143.399002 666.952881,142.151535 
M113.032066,212.708084 
	C113.135674,213.235535 113.239281,213.762985 113.342888,214.290451 
	C113.558830,214.220490 113.774773,214.150528 113.990715,214.080566 
	C113.693085,213.423599 113.395447,212.766632 113.032066,212.708084 
z"/>
<path fill="#55A958" opacity="1.000000" stroke="none" 
	d="
M240.945969,43.020771 
	C244.425568,40.466633 245.983780,42.549255 247.196396,45.580456 
	C250.722580,54.394913 254.259369,63.205170 257.818329,72.006432 
	C258.413574,73.478500 259.140350,74.897369 260.312622,77.438034 
	C264.499756,67.133080 268.235443,57.934120 271.976257,48.737221 
	C272.666412,47.040459 273.140625,45.185959 274.168213,43.722908 
	C274.773376,42.861279 276.277069,42.249290 277.365967,42.265068 
	C277.935608,42.273319 278.959229,43.875862 278.966736,44.765217 
	C279.065186,56.425976 279.033478,68.088028 278.970734,79.749413 
	C278.967072,80.434120 278.419464,81.115906 277.249359,81.763779 
	C275.405701,71.324081 276.430969,60.778763 275.033539,50.091106 
	C271.764404,57.976799 268.607330,65.911819 265.167725,73.722435 
	C263.898376,76.604889 261.963409,79.194229 260.332031,81.917259 
	C258.565796,79.138550 256.435272,76.522667 255.105942,73.548645 
	C251.924011,66.429924 249.119080,59.142693 245.144379,51.959995 
	C245.011444,53.268440 244.770340,54.576321 244.763535,55.885414 
	C244.725433,63.215786 244.788528,70.546906 244.713898,77.876717 
	C244.693466,79.882820 245.297562,82.770294 241.253021,80.773506 
	C241.008865,67.701599 240.977417,55.361183 240.945969,43.020771 
z"/>
<path fill="#2574C5" opacity="1.000000" stroke="none" 
	d="
M351.945984,65.923126 
	C351.344543,71.384476 351.041016,76.513626 350.737488,81.642769 
	C350.149445,81.684814 349.561371,81.726860 348.973328,81.768898 
	C348.628754,80.233093 347.999512,78.699837 347.985748,77.161064 
	C347.895050,67.015663 348.043854,56.867332 347.878479,46.723801 
	C347.819092,43.081505 349.034698,41.576385 352.775848,41.799648 
	C356.920227,42.046967 361.092194,41.786171 365.246979,41.914261 
	C373.467102,42.167686 378.009308,46.348854 377.963531,53.462242 
	C377.918793,60.415722 372.998108,64.870415 365.151733,65.107178 
	C360.848175,65.237038 356.546417,65.427689 351.945984,65.923126 
M365.954102,45.120789 
	C365.124481,45.112949 364.294830,45.099670 363.465210,45.098087 
	C350.248260,45.072872 350.324127,45.068707 351.105408,58.218170 
	C351.272675,61.033337 352.313538,62.030514 355.030304,61.913105 
	C358.343170,61.769936 361.671295,61.979969 364.984039,61.835384 
	C370.843842,61.579636 374.250854,58.679642 374.668701,53.805832 
	C375.036041,49.520603 372.600616,46.840279 365.954102,45.120789 
z"/>
<path fill="#56AC5A" opacity="1.000000" stroke="none" 
	d="
M306.103333,79.969788 
	C302.669983,81.014313 299.616577,82.569405 296.438843,82.889076 
	C292.118073,83.323738 288.648346,81.459366 287.437622,76.777016 
	C286.381073,72.690903 288.264862,68.749588 292.726135,66.662994 
	C294.777679,65.703453 297.135773,65.344162 299.390564,64.889801 
	C301.647400,64.435036 303.948761,64.201164 306.163635,63.880169 
	C307.102509,58.567478 304.939636,55.591019 299.625397,56.229229 
	C295.916962,56.674591 292.420532,58.885014 288.129700,60.584099 
	C288.813721,58.978199 289.168518,57.419903 290.038574,56.242344 
	C292.382202,53.070545 299.118500,51.892090 303.973175,53.541416 
	C308.367584,55.034382 310.204468,58.152260 310.138367,62.684204 
	C310.058319,68.170967 310.162842,73.660561 310.067322,79.146843 
	C310.052338,80.007881 309.401459,80.857841 309.044617,81.712914 
	C308.172363,81.118546 307.300110,80.524178 306.103333,79.969788 
M290.721375,73.138969 
	C291.014374,74.682060 290.838287,77.162201 291.690308,77.588753 
	C294.043182,78.766663 297.063965,80.059555 299.376465,79.493248 
	C302.117279,78.822052 304.927551,76.653885 306.648010,74.344902 
	C307.513123,73.183830 306.757233,69.326149 305.470337,68.343803 
	C302.268280,65.899475 293.704010,68.690132 290.721375,73.138969 
z"/>
<path fill="#246FBB" opacity="1.000000" stroke="none" 
	d="
M448.017883,76.741562 
	C447.943298,71.782623 448.038055,67.279572 447.744934,62.801914 
	C447.492462,58.945389 445.928925,55.999535 441.276550,56.373608 
	C436.668518,56.744118 433.038177,59.928421 432.907410,64.017654 
	C432.758392,68.676468 433.009613,73.351212 432.761780,78.001717 
	C432.692444,79.303154 431.476166,80.543472 430.786011,81.811821 
	C430.182648,80.608521 429.088867,79.417992 429.057098,78.199814 
	C428.879364,71.375755 428.944183,64.545006 428.956177,57.716587 
	C428.960693,55.151527 429.564850,53.501118 432.835785,54.469475 
	C434.052185,54.829590 435.674469,54.136280 437.025543,53.672421 
	C445.738770,50.680927 451.185303,54.126312 451.619965,63.308338 
	C451.911682,69.470970 451.675507,75.658592 451.675507,81.835030 
	C450.860016,81.914001 450.044556,81.992981 449.229065,82.071953 
	C448.825653,80.450790 448.422272,78.829620 448.017883,76.741562 
z"/>
<path fill="#2473C2" opacity="1.000000" stroke="none" 
	d="
M391.973938,53.427727 
	C401.461853,52.121891 407.308228,54.996910 408.663574,62.227791 
	C410.258667,70.737877 409.396149,78.902199 401.744446,82.096016 
	C395.250275,84.806664 388.933929,82.783447 385.529846,76.680084 
	C381.239136,68.987091 384.058075,58.237370 391.973938,53.427727 
M392.783691,78.963432 
	C399.010925,80.700592 402.911255,79.100899 405.036438,73.938057 
	C407.555054,67.819542 405.659973,59.724854 401.133759,57.268188 
	C397.248627,55.159481 391.923859,56.180584 389.396393,59.518993 
	C385.214539,65.042625 386.506226,74.249542 392.783691,78.963432 
z"/>
<path fill="#55A958" opacity="1.000000" stroke="none" 
	d="
M326.294678,75.406677 
	C324.139282,78.024010 322.180389,80.348137 320.221527,82.672272 
	C319.586273,82.172768 318.951050,81.673264 318.315826,81.173759 
	C320.607910,77.908333 322.788788,74.556892 325.227295,71.404762 
	C327.165497,68.899399 327.234711,66.871162 325.107727,64.351318 
	C322.607239,61.388927 320.555481,58.047764 318.815491,54.443798 
	C324.909607,55.093243 325.396545,61.637856 329.589691,64.214325 
	C333.899445,61.827511 334.192535,55.078915 340.772369,54.688251 
	C339.499084,56.644367 338.269073,58.630310 336.945099,60.551514 
	C330.657532,69.675362 330.720337,66.403831 337.101013,75.603302 
	C338.375000,77.440071 339.600372,79.310570 340.403870,81.542122 
	C334.401581,80.843887 333.859467,74.403229 329.405304,71.433105 
	C328.446930,72.643440 327.469055,73.878456 326.294678,75.406677 
z"/>
<path fill="#246FBB" opacity="1.000000" stroke="none" 
	d="
M461.455627,79.146912 
	C461.286346,73.565796 461.410706,68.391731 461.072845,63.248039 
	C460.897675,60.581528 459.904205,57.968769 459.180969,54.911457 
	C459.708771,53.157566 460.350952,50.576324 461.298431,48.112476 
	C461.639343,47.226040 462.714661,46.622021 463.454803,45.889099 
	C463.960266,46.646996 464.569855,47.356152 464.951660,48.171917 
	C466.109589,50.646091 467.179321,53.161533 468.470062,56.083405 
	C462.723999,58.039841 465.284760,63.910591 465.104095,68.730461 
	C464.919281,73.662018 463.508453,79.323830 470.931793,81.628555 
	C466.717743,83.458229 463.535675,84.022560 461.455627,79.146912 
z"/>
<path fill="#2473C2" opacity="1.000000" stroke="none" 
	d="
M416.861145,66.019562 
	C417.013580,61.749226 417.170013,57.972908 417.326447,54.196587 
	C420.859589,57.631420 420.858002,78.331017 417.707703,82.831985 
	C416.171234,76.838646 417.195892,71.603760 416.861145,66.019562 
z"/>
<path fill="#2C413E" opacity="1.000000" stroke="none" 
	d="
M240.710358,43.357422 
	C240.977417,55.361183 241.008865,67.701599 240.991364,80.505264 
	C240.626678,79.558357 240.029617,78.146179 240.039749,76.738358 
	C240.119049,65.723122 240.314880,54.708729 240.710358,43.357422 
z"/>
<path fill="#EEEEEE" opacity="1.000000" stroke="none" 
	d="
M42.107689,143.111069 
	C42.089901,136.686829 42.072113,130.262589 42.537971,123.398804 
	C44.021278,122.970421 45.020935,122.991310 46.020592,122.991325 
	C251.483414,122.995316 456.946228,122.998047 662.409058,122.996254 
	C663.907898,122.996239 665.406799,122.933586 666.905640,122.900185 
	C666.921326,129.317307 666.937134,135.734421 666.470825,142.594666 
	C664.822388,143.025055 663.656067,143.001160 662.489746,143.001160 
	C457.694275,143.000153 252.898804,143.000534 48.103340,143.005997 
	C46.104790,143.006042 44.106239,143.074524 42.107689,143.111069 
M384.018921,136.794525 
	C383.896637,140.277359 386.365112,139.915756 388.649200,140.003708 
	C391.603607,140.117462 392.151031,138.382706 392.874847,135.993179 
	C394.027527,135.993118 395.184296,135.930527 396.332153,136.004837 
	C399.618988,136.217651 400.023804,134.227875 400.033905,131.587784 
	C400.044983,128.690811 398.573822,127.970612 396.004242,127.970634 
	C393.444977,127.970650 391.837555,128.660049 391.993042,131.571106 
	C392.072021,133.049072 392.013092,134.534378 391.123657,135.997910 
	C388.742645,136.004990 386.361633,136.012054 383.988220,135.129532 
	C383.999359,128.652145 381.609253,125.848663 378.305786,128.539581 
	C376.626801,129.907257 376.724731,133.456314 375.126160,136.005859 
	C372.744568,136.010040 370.362946,136.014221 367.988251,135.127289 
	C367.989807,133.974396 367.928131,132.817276 368.004913,131.669403 
	C368.225098,128.377182 366.232452,127.980217 363.592987,127.969490 
	C360.700012,127.957718 359.966034,129.414902 359.969666,131.991852 
	C359.973236,134.548035 360.655914,136.161179 363.569702,136.004837 
	C365.047913,135.925537 366.533569,135.984940 368.181213,136.661407 
	C374.192993,141.174759 375.178955,141.088715 376.873535,135.991684 
	C379.255371,135.988007 381.637207,135.984314 384.018921,136.794525 
M300.869019,137.016525 
	C304.164154,137.444580 307.459290,137.872650 310.302429,138.241989 
	C309.642883,135.427261 309.383179,133.360214 308.648773,131.478424 
	C308.024628,129.879181 306.853119,128.493546 305.923859,127.013390 
	C304.982178,128.617325 302.890228,130.699722 303.320099,131.733154 
	C304.487701,134.540268 302.604675,135.116211 300.869019,137.016525 
M335.535522,129.075806 
	C334.659241,128.728043 333.717072,127.983711 332.920502,128.115967 
	C331.316650,128.382248 329.034973,128.701462 328.429260,129.781723 
	C327.696808,131.088043 327.780884,133.723450 328.682953,134.820770 
	C329.522339,135.841873 332.792725,136.420410 333.416321,135.742844 
	C334.761414,134.281296 335.094788,131.888657 335.535522,129.075806 
M346.310425,129.907089 
	C345.611755,130.165894 344.913116,130.424698 344.214447,130.683487 
	C344.890015,132.423203 345.565582,134.162903 346.241180,135.902603 
	C348.127869,135.155838 351.298492,134.796722 351.662750,133.590271 
	C352.796661,129.834808 349.598663,130.014038 346.310425,129.907089 
z"/>
<path fill="#357AB5" opacity="1.000000" stroke="none" 
	d="
M305.339020,235.071182 
	C305.708954,234.431931 306.078918,233.792679 306.997009,233.252838 
	C311.002625,233.245438 314.459900,233.051102 317.917542,233.045670 
	C344.944916,233.003204 371.972382,232.997009 399.316864,232.983887 
	C400.055969,233.007431 400.478058,233.026703 400.900116,233.045975 
	C400.900116,233.045975 400.963318,233.011978 401.103455,233.225769 
	C401.440765,233.666306 401.663635,233.864014 401.912231,234.032700 
	C401.912231,234.032700 401.984711,234.042572 401.984131,234.535736 
	C401.648438,245.325089 401.313324,255.621262 400.978241,265.917450 
	C400.512726,266.245422 400.047211,266.573425 398.935791,266.651733 
	C397.307465,266.267456 396.325195,266.016144 395.342651,266.015228 
	C367.535217,265.989380 339.727722,265.979767 311.920288,266.012512 
	C310.626892,266.014038 309.333923,266.431458 308.040771,266.655182 
	C307.170746,265.933929 306.300751,265.212677 305.567169,263.838074 
	C305.582092,253.813568 305.460541,244.442368 305.339020,235.071182 
M362.948730,246.053711 
	C362.948730,246.053711 362.970642,246.162766 362.569489,245.645096 
	C361.748444,245.410950 360.927399,245.176804 359.648926,244.623047 
	C356.801971,245.126053 353.955048,245.629059 350.558472,245.833282 
	C349.989685,245.575195 349.420898,245.317093 348.179535,244.724655 
	C347.416748,244.469208 346.515381,243.822754 345.918213,244.034470 
	C344.366394,244.584564 342.948273,245.511780 341.476807,246.288528 
	C342.531921,247.290359 343.538177,248.351410 344.657623,249.275253 
	C345.550995,250.012512 346.582336,250.582596 347.552429,251.226883 
	C347.377502,251.711990 347.202545,252.197083 347.027588,252.682190 
	C345.183075,252.315796 343.338593,251.949417 341.494110,251.583038 
	C347.592316,253.764328 353.748108,254.656677 360.451752,253.049454 
	C360.451752,253.049454 360.808380,253.078934 361.112366,253.603317 
	C361.686646,253.697098 362.260895,253.790878 363.466431,253.922424 
	C363.677246,253.923431 363.888031,253.924423 364.867340,253.853668 
	C365.899872,251.241226 366.932404,248.628784 368.308777,245.620071 
	C368.051575,245.172241 367.794373,244.724411 367.537170,244.276566 
	C367.028168,244.801956 366.519196,245.327362 365.371338,245.984726 
	C364.937042,246.002640 364.502777,246.020554 363.457703,246.053787 
	C363.254608,246.069717 363.051483,246.085648 362.948730,246.053711 
z"/>
<path fill="#CBCBCB" opacity="1.000000" stroke="none" 
	d="
M42.421677,143.364471 
	C44.106239,143.074524 46.104790,143.006042 48.103340,143.005997 
	C252.898804,143.000534 457.694275,143.000153 662.489746,143.001160 
	C663.656067,143.001160 664.822388,143.025055 666.447144,143.068848 
	C665.149902,143.399002 663.394287,143.959778 661.638489,143.960098 
	C456.987701,143.997955 252.336914,143.995071 47.686127,143.977203 
	C46.035961,143.977051 44.385818,143.742828 42.421677,143.364471 
z"/>
<path fill="#CBCBCB" opacity="1.000000" stroke="none" 
	d="
M666.591064,122.645172 
	C665.406799,122.933586 663.907898,122.996239 662.409058,122.996254 
	C456.946228,122.998047 251.483414,122.995316 46.020592,122.991325 
	C45.020935,122.991310 44.021278,122.970421 42.564648,122.924072 
	C43.864758,122.595276 45.621792,122.044876 47.378929,122.044525 
	C252.195450,122.004112 457.011963,122.003723 661.828491,122.018768 
	C663.311157,122.018875 664.793762,122.261032 666.591064,122.645172 
z"/>
<path fill="#A13846" opacity="1.000000" stroke="none" 
	d="
M94.935310,170.045761 
	C99.075592,170.066406 103.216370,170.135574 107.355988,170.092529 
	C110.728455,170.057449 112.476692,171.117874 112.370819,175.003937 
	C112.123642,184.077408 112.291916,193.162170 112.291916,203.267334 
	C109.160103,199.129105 108.372864,193.267151 101.658112,196.253357 
	C99.847137,195.307068 98.429382,194.128464 97.092636,192.528625 
	C97.404854,188.762085 97.636070,185.416779 97.917336,181.682617 
	C97.890800,180.515991 97.814201,179.738190 97.773788,178.706238 
	C97.577957,178.221832 97.345947,177.991592 97.011795,177.466766 
	C96.251534,174.796707 95.593422,172.421234 94.935310,170.045761 
M106.634468,187.622833 
	C106.634468,187.622833 106.752541,187.472763 107.388039,187.019485 
	C112.485046,183.690918 111.623985,178.413864 110.444077,174.017136 
	C110.075996,172.645538 104.829697,172.511261 101.787628,171.974152 
	C100.910149,171.819214 99.932030,172.234177 99.196312,172.355499 
	C99.454300,175.760559 99.514778,178.893280 100.002892,181.957901 
	C100.227043,183.365234 101.290443,184.638870 101.860443,186.637024 
	C101.032532,187.948074 100.204620,189.259109 98.839439,191.420929 
	C103.002228,192.629578 106.598785,193.673813 110.234970,194.729553 
	C112.040405,190.359436 108.855515,189.375595 106.634468,187.622833 
z"/>
<path fill="#AB1E35" opacity="1.000000" stroke="none" 
	d="
M83.700264,200.746887 
	C82.572495,200.858597 81.444717,200.970306 79.808022,201.132431 
	C79.808022,191.625061 79.707924,182.385284 79.952225,173.154648 
	C79.978645,172.156189 81.999977,171.210526 83.510666,170.683472 
	C83.864136,175.926727 82.738091,181.034561 84.013565,185.448441 
	C85.576988,190.858734 88.253769,195.685944 83.700264,200.746887 
z"/>
<path fill="#E7DED2" opacity="1.000000" stroke="none" 
	d="
M94.960785,170.069397 
	C95.593422,172.421234 96.251534,174.796707 96.954933,177.713837 
	C96.965385,178.420776 96.930550,178.586090 96.544502,178.802826 
	C95.109131,179.223740 94.024979,179.593231 92.659126,180.024811 
	C91.913109,180.407898 91.448784,180.728912 90.601379,180.949921 
	C87.190750,181.271835 86.010155,179.267700 85.080856,176.590591 
	C85.710350,173.847931 86.337265,171.451523 86.964188,169.055115 
	C89.187782,167.687500 91.331482,165.312851 94.158730,169.024887 
	C94.636810,169.688828 94.851448,169.858521 95.044640,170.055344 
	C95.044640,170.055344 94.986252,170.093048 94.960785,170.069397 
z"/>
<path fill="#461B11" opacity="1.000000" stroke="none" 
	d="
M86.607964,169.086456 
	C86.337265,171.451523 85.710350,173.847931 85.087341,176.983139 
	C84.124207,184.036301 84.729057,185.000015 91.042801,187.300385 
	C91.122017,187.522522 90.990776,187.975601 90.719139,188.024780 
	C90.607574,188.419724 90.767647,188.765518 90.914650,189.085220 
	C90.901581,189.059143 90.868530,189.107239 90.814697,189.411697 
	C90.561897,190.460251 90.362915,191.204361 89.928802,192.171173 
	C89.133347,193.572876 88.573021,194.751877 87.999756,196.222504 
	C88.039215,196.701065 88.091614,196.888016 88.130699,197.397552 
	C88.097466,198.147415 88.077538,198.574707 87.684448,199.118179 
	C88.096367,200.853607 84.046883,205.212448 90.229263,203.949493 
	C90.662819,204.014236 90.834488,204.051071 91.034035,204.342438 
	C91.084663,204.766174 91.107414,204.935364 91.130157,205.104553 
	C89.337051,205.541397 87.307396,206.674545 85.832855,206.173630 
	C84.827057,205.831940 84.596832,203.207184 83.860046,201.175064 
	C88.253769,195.685944 85.576988,190.858734 84.013565,185.448441 
	C82.738091,181.034561 83.864136,175.926727 83.893517,170.779022 
	C84.658363,169.993576 85.455055,169.555679 86.607964,169.086456 
z"/>
<path fill="#40698D" opacity="1.000000" stroke="none" 
	d="
M398.999817,232.979614 
	C371.972382,232.997009 344.944916,233.003204 317.917542,233.045670 
	C314.459900,233.051102 311.002625,233.245438 307.258179,233.141113 
	C308.495514,232.612518 310.019440,232.020767 311.544312,232.018265 
	C340.387207,231.970917 369.230255,231.993179 398.535645,232.290146 
	C398.998077,232.579330 398.999817,232.979614 398.999817,232.979614 
z"/>
<path fill="#3B6A97" opacity="1.000000" stroke="none" 
	d="
M308.488434,266.799469 
	C309.333923,266.431458 310.626892,266.014038 311.920288,266.012512 
	C339.727722,265.979767 367.535217,265.989380 395.342651,266.015228 
	C396.325195,266.016144 397.307465,266.267456 398.639435,266.620300 
	C368.971375,266.873566 338.953735,266.908661 308.488434,266.799469 
z"/>
<path fill="#CCB7B0" opacity="1.000000" stroke="none" 
	d="
M97.011627,192.949860 
	C98.429382,194.128464 99.847137,195.307068 101.487366,196.666718 
	C101.984436,197.141068 102.259026,197.434387 102.251205,197.969467 
	C101.046783,199.203430 99.576668,200.081314 99.339890,201.216461 
	C99.035851,202.674072 99.722641,204.338333 99.982574,205.913574 
	C98.211777,205.416229 96.440979,204.918900 94.328476,203.852829 
	C94.670807,200.181061 95.354858,197.078049 96.023445,194.011124 
	C96.007980,194.047226 95.933769,194.021469 96.229675,194.062668 
	C96.675987,193.749649 96.826385,193.395447 96.968033,193.011780 
	C96.959282,192.982315 97.011620,192.949860 97.011627,192.949860 
z"/>
<path fill="#463D2A" opacity="1.000000" stroke="none" 
	d="
M96.038910,193.975021 
	C95.354858,197.078049 94.670807,200.181061 94.064758,203.688446 
	C93.368408,204.412140 92.594063,204.731476 91.474937,205.077682 
	C91.107414,204.935364 91.084663,204.766174 91.224854,204.180878 
	C90.920853,203.524490 90.453934,203.284210 89.901390,202.712646 
	C89.811180,201.927017 89.806602,201.472672 89.904694,200.624115 
	C89.979950,199.151428 89.952553,198.072952 89.781708,196.737396 
	C89.096405,196.297180 88.554550,196.114029 88.012695,195.930862 
	C88.573021,194.751877 89.133347,193.572876 90.228256,192.402588 
	C91.346603,194.119186 91.930374,195.827103 92.614357,197.828201 
	C94.214119,196.028214 95.126511,195.001617 96.038910,193.975021 
z"/>
<path fill="#A13846" opacity="1.000000" stroke="none" 
	d="
M100.360443,206.001862 
	C99.722641,204.338333 99.035851,202.674072 99.339890,201.216461 
	C99.576668,200.081314 101.046783,199.203430 102.304382,198.268127 
	C103.422592,201.048752 104.205208,203.772461 105.208679,207.264816 
	C103.292595,206.761337 102.015457,206.425751 100.360443,206.001862 
z"/>
<path fill="#3B6A97" opacity="1.000000" stroke="none" 
	d="
M401.341125,265.761475 
	C401.313324,255.621262 401.648438,245.325089 401.965637,234.567276 
	C402.307220,235.638199 402.954681,237.166550 402.977081,238.704025 
	C403.083038,245.968826 403.098816,253.237732 402.954437,260.501343 
	C402.920441,262.210297 402.140686,263.904480 401.341125,265.761475 
z"/>
<path fill="#3B6A97" opacity="1.000000" stroke="none" 
	d="
M305.196686,235.516327 
	C305.460541,244.442368 305.582092,253.813568 305.525635,263.547302 
	C305.249878,254.593704 305.152100,245.277573 305.196686,235.516327 
z"/>
<path fill="#CCB7B0" opacity="1.000000" stroke="none" 
	d="
M75.090256,214.917664 
	C73.825172,214.290909 72.560104,213.664154 71.295044,213.037399 
	C71.649025,212.385727 72.228310,211.136307 72.323189,211.172073 
	C73.731468,211.702881 75.075584,212.403961 75.979210,213.554596 
	C75.379105,214.335541 75.234680,214.626602 75.090256,214.917664 
z"/>
<path fill="#616263" opacity="1.000000" stroke="none" 
	d="
M113.064941,212.408875 
	C113.395447,212.766632 113.693085,213.423599 113.990715,214.080566 
	C113.774773,214.150528 113.558830,214.220490 113.342888,214.290451 
	C113.239281,213.762985 113.135674,213.235535 113.064941,212.408875 
z"/>
<path fill="#303A46" opacity="1.000000" stroke="none" 
	d="
M75.375870,214.963776 
	C75.234680,214.626602 75.379105,214.335541 75.758636,213.933746 
	C76.401787,214.038025 76.809837,214.252991 77.217888,214.467972 
	C76.699089,214.648605 76.180283,214.829254 75.375870,214.963776 
z"/>
<path fill="#3B6A97" opacity="1.000000" stroke="none" 
	d="
M399.316864,232.983887 
	C398.999817,232.979614 398.998077,232.579330 398.996460,232.379181 
	C399.527069,232.308472 400.059296,232.437897 400.745789,232.806656 
	C400.478058,233.026703 400.055969,233.007431 399.316864,232.983887 
z"/>
<path fill="#3B6A97" opacity="1.000000" stroke="none" 
	d="
M401.874054,233.780212 
	C401.663635,233.864014 401.440765,233.666306 401.107849,233.261398 
	C401.260040,233.231384 401.547943,233.379547 401.874054,233.780212 
z"/>
<path fill="#A13846" opacity="1.000000" stroke="none" 
	d="
M95.128098,169.794388 
	C94.851448,169.858521 94.636810,169.688828 94.297043,169.368774 
	C94.532753,169.305313 94.872154,169.419373 95.128098,169.794388 
z"/>
<path fill="#2B3C50" opacity="1.000000" stroke="none" 
	d="
M366.387665,45.145081 
	C372.600616,46.840279 375.036041,49.520603 374.668701,53.805832 
	C374.250854,58.679642 370.843842,61.579636 364.984039,61.835384 
	C361.671295,61.979969 358.343170,61.769936 355.030304,61.913105 
	C352.313538,62.030514 351.272675,61.033337 351.105408,58.218170 
	C350.324127,45.068707 350.248260,45.072872 363.465210,45.098087 
	C364.294830,45.099670 365.124481,45.112949 366.387665,45.145081 
z"/>
<path fill="#2C413E" opacity="1.000000" stroke="none" 
	d="
M290.835052,72.783112 
	C293.704010,68.690132 302.268280,65.899475 305.470337,68.343803 
	C306.757233,69.326149 307.513123,73.183830 306.648010,74.344902 
	C304.927551,76.653885 302.117279,78.822052 299.376465,79.493248 
	C297.063965,80.059555 294.043182,78.766663 291.690308,77.588753 
	C290.838287,77.162201 291.014374,74.682060 290.835052,72.783112 
z"/>
<path fill="#2B3C50" opacity="1.000000" stroke="none" 
	d="
M392.431885,78.805908 
	C386.506226,74.249542 385.214539,65.042625 389.396393,59.518993 
	C391.923859,56.180584 397.248627,55.159481 401.133759,57.268188 
	C405.659973,59.724854 407.555054,67.819542 405.036438,73.938057 
	C402.911255,79.100899 399.010925,80.700592 392.431885,78.805908 
z"/>
<path fill="#616263" opacity="1.000000" stroke="none" 
	d="
M301.024048,136.633484 
	C302.604675,135.116211 304.487701,134.540268 303.320099,131.733154 
	C302.890228,130.699722 304.982178,128.617325 305.923828,127.013397 
	C306.853119,128.493546 308.024628,129.879181 308.648773,131.478424 
	C309.383179,133.360214 309.642883,135.427261 310.302429,138.241989 
	C307.459290,137.872650 304.164154,137.444580 301.024048,136.633484 
z"/>
<path fill="#D1D1D1" opacity="1.000000" stroke="none" 
	d="
M335.688812,129.476410 
	C335.094788,131.888657 334.761414,134.281296 333.416321,135.742844 
	C332.792725,136.420410 329.522339,135.841873 328.682953,134.820770 
	C327.780884,133.723450 327.696808,131.088043 328.429260,129.781723 
	C329.034973,128.701462 331.316650,128.382248 332.920502,128.115967 
	C333.717072,127.983711 334.659241,128.728043 335.688812,129.476410 
z"/>
<path fill="#D1D1D1" opacity="1.000000" stroke="none" 
	d="
M392.016479,136.016373 
	C392.013092,134.534378 392.072021,133.049072 391.993042,131.571106 
	C391.837555,128.660049 393.444977,127.970650 396.004242,127.970634 
	C398.573822,127.970612 400.044983,128.690811 400.033905,131.587784 
	C400.023804,134.227875 399.618988,136.217651 396.332153,136.004837 
	C395.184296,135.930527 394.027527,135.993118 392.437622,135.996796 
	C392.000366,136.000412 392.016479,136.016373 392.016479,136.016373 
z"/>
<path fill="#D1D1D1" opacity="1.000000" stroke="none" 
	d="
M368.015839,135.981644 
	C366.533569,135.984940 365.047913,135.925537 363.569702,136.004837 
	C360.655914,136.161179 359.973236,134.548035 359.969666,131.991852 
	C359.966034,129.414902 360.700012,127.957718 363.592987,127.969490 
	C366.232452,127.980217 368.225098,128.377182 368.004913,131.669403 
	C367.928131,132.817276 367.989807,133.974396 367.993774,135.563873 
	C367.999298,136.000473 368.015839,135.981644 368.015839,135.981644 
z"/>
<path fill="#D1D1D1" opacity="1.000000" stroke="none" 
	d="
M384.019043,135.980637 
	C381.637207,135.984314 379.255371,135.988007 376.436829,135.996002 
	C376.000122,136.000336 376.019409,136.019257 376.019409,136.019257 
	C376.724731,133.456314 376.626801,129.907257 378.305786,128.539581 
	C381.609253,125.848663 383.999359,128.652145 383.994110,135.564774 
	C384.000000,136.000015 384.019043,135.980637 384.019043,135.980637 
z"/>
<path fill="#D1D1D1" opacity="1.000000" stroke="none" 
	d="
M346.697815,129.935303 
	C349.598663,130.014038 352.796661,129.834808 351.662750,133.590271 
	C351.298492,134.796722 348.127869,135.155838 346.241180,135.902603 
	C345.565582,134.162903 344.890015,132.423203 344.214447,130.683487 
	C344.913116,130.424698 345.611755,130.165894 346.697815,129.935303 
z"/>
<path fill="#D1D1D1" opacity="1.000000" stroke="none" 
	d="
M383.990295,136.009583 
	C386.361633,136.012054 388.742645,136.004990 391.570068,136.007141 
	C392.016479,136.016373 392.000366,136.000412 391.992310,135.992218 
	C392.151031,138.382706 391.603607,140.117462 388.649200,140.003708 
	C386.365112,139.915756 383.896637,140.277359 384.018982,136.387573 
	C384.019043,135.980637 384.000000,136.000015 383.990295,136.009583 
z"/>
<path fill="#D1D1D1" opacity="1.000000" stroke="none" 
	d="
M367.990326,136.009445 
	C370.362946,136.014221 372.744568,136.010040 375.572784,136.012558 
	C376.019409,136.019257 376.000122,136.000336 375.990540,135.990540 
	C375.178955,141.088715 374.192993,141.174759 368.098511,136.321533 
	C368.015839,135.981644 367.999298,136.000473 367.990326,136.009445 
z"/>
<path fill="#D1EAF4" opacity="1.000000" stroke="none" 
	d="
M351.108093,246.132065 
	C353.955048,245.629059 356.801971,245.126053 359.791260,245.227386 
	C359.987518,248.226898 360.041443,250.622101 360.095367,253.017288 
	C353.748108,254.656677 347.592316,253.764328 341.494110,251.583038 
	C343.338593,251.949417 345.183075,252.315796 347.027588,252.682190 
	C347.202545,252.197083 347.377502,251.711990 347.552429,251.226883 
	C346.582336,250.582596 345.550995,250.012512 344.657623,249.275253 
	C343.538177,248.351410 342.531921,247.290359 341.476807,246.288513 
	C342.948273,245.511780 344.366394,244.584564 345.918213,244.034470 
	C346.515381,243.822754 347.416748,244.469208 348.558960,245.238922 
	C347.165497,245.753204 345.392578,245.753204 343.619659,245.753204 
	C343.603729,246.164200 343.587799,246.575195 343.571869,246.986191 
	C347.177277,247.783859 350.296997,252.761673 354.393585,248.070450 
	C353.332031,247.444153 352.220062,246.788101 351.108093,246.132065 
z"/>
<path fill="#4C7EA6" opacity="1.000000" stroke="none" 
	d="
M350.833282,245.982666 
	C352.220062,246.788101 353.332031,247.444153 354.393585,248.070450 
	C350.296997,252.761673 347.177277,247.783859 343.571869,246.986191 
	C343.587799,246.575195 343.603729,246.164200 343.619659,245.753204 
	C345.392578,245.753204 347.165497,245.753204 348.895264,245.406097 
	C349.420898,245.317093 349.989685,245.575195 350.833282,245.982666 
z"/>
<path fill="#D1EAF4" opacity="1.000000" stroke="none" 
	d="
M364.068481,246.038467 
	C364.502777,246.020554 364.937042,246.002640 366.013641,245.971954 
	C367.092285,245.978241 367.528625,245.997299 367.964966,246.016357 
	C366.932404,248.628784 365.899872,251.241226 364.442810,253.454651 
	C364.035034,250.716583 364.051758,248.377518 364.068481,246.038467 
z"/>
<path fill="#D1EAF4" opacity="1.000000" stroke="none" 
	d="
M362.835175,253.884659 
	C362.260895,253.790878 361.686646,253.697098 361.013489,252.909912 
	C361.820587,250.273529 358.909790,247.034241 362.970642,246.162766 
	C362.970642,246.162766 362.948730,246.053711 362.910828,246.509766 
	C362.860352,249.272110 362.847748,251.578384 362.835175,253.884659 
z"/>
<path fill="#4C7EA6" opacity="1.000000" stroke="none" 
	d="
M362.770081,245.903931 
	C358.909790,247.034241 361.820587,250.273529 360.861481,252.647705 
	C360.808380,253.078934 360.451752,253.049454 360.273560,253.033371 
	C360.041443,250.622101 359.987518,248.226898 360.019958,245.387177 
	C360.927399,245.176804 361.748444,245.410950 362.770081,245.903931 
z"/>
<path fill="#4C7EA6" opacity="1.000000" stroke="none" 
	d="
M363.150818,253.903534 
	C362.847748,251.578384 362.860352,249.272110 362.860657,246.533722 
	C363.051483,246.085648 363.254608,246.069717 363.763092,246.046127 
	C364.051758,248.377518 364.035034,250.716583 364.058533,253.490509 
	C363.888031,253.924423 363.677246,253.923431 363.150818,253.903534 
z"/>
<path fill="#4C7EA6" opacity="1.000000" stroke="none" 
	d="
M368.136871,245.818222 
	C367.528625,245.997299 367.092285,245.978241 366.333069,245.905975 
	C366.519196,245.327362 367.028168,244.801956 367.537170,244.276581 
	C367.794373,244.724411 368.051575,245.172241 368.136871,245.818222 
z"/>
<path fill="#C11230" opacity="1.000000" stroke="none" 
	d="
M101.973267,185.973145 
	C101.290443,184.638870 100.227043,183.365234 100.002892,181.957901 
	C99.514778,178.893280 99.454300,175.760559 99.196312,172.355499 
	C99.932030,172.234177 100.910149,171.819214 101.787628,171.974152 
	C104.829697,172.511261 110.075996,172.645538 110.444077,174.017136 
	C111.623985,178.413864 112.485046,183.690918 106.837372,187.025589 
	C105.470879,187.015778 104.655060,186.999863 103.614517,186.841644 
	C102.917625,186.457260 102.445450,186.215195 101.973267,185.973145 
z"/>
<path fill="#C13148" opacity="1.000000" stroke="none" 
	d="
M101.916855,186.305084 
	C102.445450,186.215195 102.917625,186.457260 103.599548,187.214417 
	C104.027542,188.416733 104.245804,189.103943 104.464066,189.791153 
	C105.226685,189.118576 105.989304,188.445984 106.751923,187.773392 
	C108.855515,189.375595 112.040405,190.359436 110.234970,194.729553 
	C106.598785,193.673813 103.002228,192.629578 98.839439,191.420929 
	C100.204620,189.259109 101.032532,187.948074 101.916855,186.305084 
z"/>
<path fill="#DBD0C3" opacity="1.000000" stroke="none" 
	d="
M96.023445,194.011124 
	C95.126511,195.001617 94.214119,196.028214 92.614357,197.828201 
	C91.930374,195.827103 91.346603,194.119186 90.463387,192.179871 
	C90.362915,191.204361 90.561897,190.460251 91.130638,189.456024 
	C92.454369,189.613281 93.408333,190.030655 94.145645,190.353241 
	C95.479431,187.385162 96.673355,184.728317 97.867279,182.071457 
	C97.636070,185.416779 97.404854,188.762085 97.092628,192.528625 
	C97.011620,192.949860 96.959282,192.982315 96.732880,193.099091 
	C96.315567,193.484390 96.124664,193.752930 95.933762,194.021469 
	C95.933769,194.021469 96.007980,194.047226 96.023445,194.011124 
z"/>
<path fill="#CCB7B0" opacity="1.000000" stroke="none" 
	d="
M97.917336,181.682617 
	C96.673355,184.728317 95.479431,187.385162 94.145645,190.353241 
	C93.408333,190.030655 92.454369,189.613281 91.184464,189.151581 
	C90.868530,189.107239 90.901581,189.059143 90.945900,188.801407 
	C90.990402,188.354324 90.990585,188.164963 90.990776,187.975601 
	C90.990776,187.975601 91.122017,187.522522 91.276939,187.020782 
	C91.960953,184.987015 92.490044,183.454971 93.007675,181.596329 
	C92.977737,180.834061 92.959282,180.398407 92.940819,179.962738 
	C94.024979,179.593231 95.109131,179.223740 96.753098,178.865189 
	C97.312904,178.876144 97.737610,178.960403 97.737610,178.960403 
	C97.814201,179.738190 97.890800,180.515991 97.917336,181.682617 
z"/>
<path fill="#DBD0C3" opacity="1.000000" stroke="none" 
	d="
M106.693192,187.698120 
	C105.989304,188.445984 105.226685,189.118576 104.464066,189.791153 
	C104.245804,189.103943 104.027542,188.416733 103.824265,187.356735 
	C104.655060,186.999863 105.470879,187.015778 106.519623,187.252228 
	C106.752541,187.472763 106.634468,187.622833 106.693192,187.698120 
z"/>
<path fill="#DBD0C3" opacity="1.000000" stroke="none" 
	d="
M97.773788,178.706238 
	C97.737610,178.960403 97.312904,178.876144 97.104309,178.813782 
	C96.930550,178.586090 96.965385,178.420776 97.057083,178.008423 
	C97.345947,177.991592 97.577957,178.221832 97.773788,178.706238 
z"/>
<path fill="#615845" opacity="1.000000" stroke="none" 
	d="
M93.019135,181.922928 
	C92.490044,183.454971 91.960953,184.987015 91.197723,186.798645 
	C84.729057,185.000015 84.124207,184.036301 85.084778,177.329391 
	C86.010155,179.267700 87.190750,181.271835 90.741119,181.215515 
	C91.849014,181.695038 92.434074,181.808990 93.019135,181.922928 
z"/>
<path fill="#DBD0C3" opacity="1.000000" stroke="none" 
	d="
M93.007668,181.596329 
	C92.434074,181.808990 91.849014,181.695038 91.124207,181.315521 
	C91.448784,180.728912 91.913109,180.407898 92.659126,180.024811 
	C92.959282,180.398407 92.977737,180.834061 93.007668,181.596329 
z"/>
<path fill="#E7DED2" opacity="1.000000" stroke="none" 
	d="
M89.802025,201.018311 
	C89.806602,201.472672 89.811180,201.927017 89.876724,202.931610 
	C89.937675,203.481827 89.967392,203.921555 89.967392,203.921555 
	C84.046883,205.212448 88.096367,200.853607 87.665619,199.090057 
	C88.019958,198.945740 87.951027,198.951569 88.028755,199.223755 
	C88.372581,199.977814 88.638680,200.459717 89.127747,200.976410 
	C89.350723,201.011230 89.802025,201.018311 89.802025,201.018311 
z"/>
<path fill="#DBD0C3" opacity="1.000000" stroke="none" 
	d="
M89.904694,200.624115 
	C89.802025,201.018311 89.350723,201.011230 89.044289,200.695099 
	C88.475578,199.903183 88.213303,199.427368 87.951019,198.951569 
	C87.951027,198.951569 88.019958,198.945740 88.038788,198.973862 
	C88.077538,198.574707 88.097466,198.147415 88.422546,197.325668 
	C89.126854,196.952286 89.526001,196.973373 89.925148,196.994461 
	C89.952553,198.072952 89.979950,199.151428 89.904694,200.624115 
z"/>
<path fill="#CCB7B0" opacity="1.000000" stroke="none" 
	d="
M90.229263,203.949493 
	C89.967392,203.921555 89.937675,203.481827 89.962341,203.262878 
	C90.453934,203.284210 90.920853,203.524490 91.196960,203.926331 
	C90.834488,204.051071 90.662819,204.014236 90.229263,203.949493 
z"/>
<path fill="#616263" opacity="1.000000" stroke="none" 
	d="
M89.781708,196.737396 
	C89.526001,196.973373 89.126854,196.952286 88.435852,197.003082 
	C88.091614,196.888016 88.039215,196.701065 87.999756,196.222504 
	C88.554550,196.114029 89.096405,196.297180 89.781708,196.737396 
z"/>
<path fill="#DBD0C3" opacity="1.000000" stroke="none" 
	d="
M90.719139,188.024780 
	C90.990585,188.164963 90.990402,188.354324 90.958969,188.827484 
	C90.767647,188.765518 90.607574,188.419724 90.719139,188.024780 
z"/>
<path fill="#463D2A" opacity="1.000000" stroke="none" 
	d="
M96.229675,194.062668 
	C96.124664,193.752930 96.315567,193.484390 96.741623,193.128540 
	C96.826385,193.395447 96.675987,193.749649 96.229675,194.062668 
z"/>
<path fill="#616263" opacity="1.000000" stroke="none" 
	d="
M88.028748,199.223755 
	C88.213303,199.427368 88.475578,199.903183 88.821312,200.660294 
	C88.638680,200.459717 88.372581,199.977814 88.028748,199.223755 
z"/>
</svg>