<svg version="1.1" id="Layer_1" xmlns="http://www.w3.org/2000/svg" xmlns:xlink="http://www.w3.org/1999/xlink" x="0px" y="0px"
	 width="100%" viewBox="0 0 276 94" enable-background="new 0 0 276 94" xml:space="preserve">
<path fill="#FEFCFC" opacity="1.000000" stroke="none" 
	d="
M277.000000,3.000000 
	C277.000000,28.020895 277.000000,53.041790 276.548279,78.393784 
	C185.382294,78.704895 94.667999,78.683838 3.953701,78.678810 
	C2.969140,78.678757 1.984567,78.888298 1.000000,79.000000 
	C1.000000,61.979103 1.000000,44.958210 1.296524,27.427399 
	C1.910079,26.512430 2.227109,26.107374 2.544139,25.702320 
	C2.029426,25.468214 1.514713,25.234106 1.000000,25.000000 
	C1.000000,17.979052 1.000000,10.958103 1.468657,3.467924 
	C93.624878,2.999128 185.312439,2.999564 277.000000,3.000000 
M8.249307,58.453426 
	C8.559594,58.613098 8.869883,58.772770 9.800467,59.034218 
	C10.869696,59.697124 11.938925,60.360027 13.246922,61.453114 
	C13.807698,61.428528 14.368474,61.403942 15.863899,61.237602 
	C22.266888,61.326248 28.669876,61.414894 35.246887,61.702168 
	C35.246887,61.702168 35.620232,61.747860 35.620232,61.747860 
	C35.620232,61.747860 35.919437,61.509270 36.842178,61.293091 
	C48.242802,61.305546 59.643429,61.318005 71.251373,61.577080 
	C71.602020,61.693775 71.844452,61.566139 72.602646,60.895813 
	C74.639893,59.562717 76.677132,58.229622 79.336632,56.648777 
	C79.501289,56.247005 79.665955,55.845230 79.773239,55.150738 
	C79.773239,55.150738 80.022797,54.987339 80.524574,54.609806 
	C80.616493,54.208584 80.708412,53.807362 80.664864,52.550247 
	C80.725464,43.500793 80.786057,34.451336 80.874153,24.898264 
	C80.702415,24.621714 80.530670,24.345163 80.012863,23.668730 
	C79.986427,23.494442 79.959999,23.320156 79.833954,22.662306 
	C79.690765,22.346279 79.458290,22.123343 78.992065,21.968775 
	C78.992065,21.968775 79.020126,21.824905 78.884308,21.495554 
	C78.755112,21.284386 78.573997,21.137016 77.739571,20.646088 
	C74.809906,19.351925 71.880249,18.057762 68.302971,16.265760 
	C51.125652,16.186388 33.948353,16.098862 16.770945,16.062836 
	C16.192392,16.061621 15.612753,16.579784 14.420995,17.146097 
	C12.776321,17.814203 11.131647,18.482309 8.839830,19.264824 
	C8.595861,19.607143 8.351892,19.949465 7.925384,20.833595 
	C7.529098,21.240265 7.132812,21.646936 6.359241,22.338266 
	C6.149663,22.598742 6.061124,22.895388 6.047458,23.884954 
	C5.692448,30.260715 5.337437,36.636475 4.355171,43.047962 
	C3.733617,43.430050 3.112063,43.812138 1.676359,44.694702 
	C3.429242,44.850666 4.201768,44.919399 5.192045,45.815674 
	C5.185311,48.069023 5.178578,50.322372 5.080402,53.264801 
	C5.374311,53.844383 5.668220,54.423969 6.439271,55.314335 
	C6.646875,55.830498 6.854478,56.346661 7.205315,57.368862 
	C7.481919,57.569981 7.758524,57.771099 7.999985,58.000153 
	C7.999985,58.000153 8.027543,57.964748 8.249307,58.453426 
M201.342972,40.933582 
	C201.637772,40.820896 201.841629,40.617252 202.461487,39.958351 
	C202.929550,39.287487 203.397629,38.616619 204.493851,37.931873 
	C204.997314,37.616898 205.500778,37.301922 206.693573,37.105385 
	C207.104996,36.728252 207.516418,36.351120 208.072479,35.191723 
	C208.168732,33.613194 208.264969,32.034660 208.923859,30.345325 
	C209.280075,30.229187 209.636292,30.113049 210.548248,30.526400 
	C211.498901,32.720795 209.854340,36.930157 215.165726,36.563267 
	C217.766083,39.548389 219.628403,38.961636 221.096268,35.463810 
	C221.359467,34.836662 222.349625,34.514595 222.980377,34.834030 
	C223.357025,38.981583 226.461288,37.941936 229.528183,37.986977 
	C229.706970,37.977535 229.885773,37.968090 230.764282,37.911488 
	C231.946930,36.876537 233.129578,35.841591 234.729874,35.338982 
	C237.224869,38.264214 240.456314,38.646763 242.912216,36.097439 
	C244.190598,34.770420 243.716400,31.755039 244.033829,29.502295 
	C241.311630,29.158598 238.593048,28.777576 235.863144,28.513540 
	C235.476654,28.476160 235.035080,29.008438 233.878342,29.100174 
	C233.628357,29.056202 233.378357,29.012230 233.075775,28.149035 
	C232.493332,26.243439 231.910873,24.337843 231.328430,22.432247 
	C230.522568,23.619320 229.716690,24.806395 228.525177,26.211256 
	C228.284088,26.394892 228.106903,26.627270 227.317566,26.925701 
	C224.856827,27.629082 222.396103,28.332462 219.494919,28.638088 
	C219.003769,28.314585 218.512604,27.991081 217.891464,27.079060 
	C216.918564,27.239958 215.945679,27.400858 214.311432,27.822968 
	C213.786377,28.232176 213.261337,28.641386 212.270432,28.974321 
	C211.953781,28.949175 211.640900,28.973085 210.996918,28.250296 
	C209.155014,28.495464 207.313110,28.740631 205.089478,28.596798 
	C204.580627,28.452011 204.071793,28.307224 202.805389,28.048882 
	C201.545456,27.886679 200.285522,27.724476 198.916809,27.056280 
	C198.269485,27.235260 197.622147,27.414238 196.352509,27.857058 
	C195.232986,28.570637 194.113449,29.284216 192.602844,29.971790 
	C192.602844,29.971790 192.211044,29.981438 191.819473,29.416216 
	C190.889465,28.793348 189.959442,28.170481 188.919739,27.056398 
	C188.268997,27.187777 187.618240,27.319157 186.321228,27.665531 
	C185.881882,27.779980 185.442535,27.894428 184.711212,27.419540 
	C183.126694,27.281471 181.542191,27.143404 179.654541,26.442499 
	C176.821228,23.031223 177.065872,27.816481 174.805298,27.949505 
	C170.639313,28.295069 166.473343,28.640635 162.156815,28.213816 
	C161.426910,27.008259 163.739914,23.316038 158.816254,25.267868 
	C158.090012,29.289719 156.210175,33.414845 160.543854,37.099648 
	C161.127930,34.737904 161.712006,32.376156 163.000458,30.240435 
	C163.432037,35.654655 165.779892,38.834167 171.776337,37.796280 
	C172.236511,37.716633 172.722443,37.785805 173.196411,37.785805 
	C173.007858,37.388096 172.819305,36.990387 172.630737,36.592674 
	C173.930481,35.664440 175.230225,34.736206 176.753983,34.424759 
	C177.152664,37.495163 179.154068,37.731915 182.256592,37.091358 
	C183.825653,37.056553 185.394730,37.021748 187.778366,36.995625 
	C189.593811,36.277496 192.746033,39.631161 193.873703,35.489601 
	C194.256927,35.973495 194.640152,36.457386 195.007263,37.546432 
	C194.986343,37.949394 194.965424,38.352360 194.433136,39.252129 
	C195.449829,42.446632 196.167221,42.672604 200.531845,41.036861 
	C200.531845,41.036861 200.908676,41.040962 201.342972,40.933582 
M111.173569,36.798531 
	C112.443367,36.863262 113.713165,36.927990 115.816498,36.961349 
	C116.363876,36.866310 116.911255,36.771275 118.101425,36.934624 
	C120.267830,36.924660 122.434235,36.914696 125.181229,36.865566 
	C125.693542,36.591915 126.205849,36.318268 127.120255,36.591011 
	C127.481827,36.860924 127.843407,37.130840 128.623596,37.723591 
	C128.543961,36.806072 128.464310,35.888554 128.087448,34.223217 
	C128.121353,33.154022 128.155258,32.084827 128.894623,30.999420 
	C134.932861,30.283310 135.187500,30.637905 133.412430,37.421688 
	C138.798676,39.578014 135.779419,33.386292 138.521988,32.274204 
	C138.477722,37.982758 141.432617,38.628807 146.181580,37.242645 
	C148.399979,36.796848 150.618393,36.351055 153.427917,35.611111 
	C153.028366,33.402370 152.628815,31.193632 151.595108,28.461926 
	C149.456772,28.332409 147.318420,28.202890 144.393539,28.026329 
	C138.894287,25.841040 133.397781,25.894955 127.395134,28.131369 
	C127.173111,28.382906 126.951088,28.634443 126.084808,28.962696 
	C125.655014,29.020182 125.225212,29.077669 124.345818,28.829729 
	C123.890129,28.598993 123.434433,28.368259 122.510338,27.852688 
	C122.348259,27.768291 122.186180,27.683895 121.922958,27.091665 
	C121.273277,27.246302 120.623596,27.400940 119.316811,27.779537 
	C118.485695,28.167389 117.654579,28.555241 116.193756,28.898899 
	C115.774223,28.927187 115.354698,28.955477 114.975273,28.557608 
	C114.975273,28.557608 114.945694,28.130585 114.910179,27.407412 
	C112.545525,23.435940 112.073341,23.302074 109.992470,26.663673 
	C109.622940,27.098278 109.253418,27.532883 108.349243,27.972553 
	C107.901382,28.222284 107.453514,28.472015 106.325714,28.902794 
	C105.530563,29.270256 104.735405,29.637720 103.207237,29.912500 
	C101.670616,28.436636 100.133995,26.960773 98.011971,24.922649 
	C97.657692,26.005304 97.316948,27.046585 96.340317,28.322268 
	C96.172852,29.208494 96.005386,30.094721 95.174896,30.994370 
	C94.510002,30.991663 93.845116,30.988956 92.842316,30.343945 
	C91.606308,29.666491 90.370300,28.989037 89.848923,28.014652 
	C89.533257,27.023085 89.217590,26.031517 88.107437,24.983627 
	C87.045341,25.678911 85.983238,26.374195 84.921135,27.069477 
	C85.622375,28.135870 86.218544,29.294018 87.050247,30.246494 
	C88.208649,31.573112 89.543320,32.745815 90.008888,33.987247 
	C88.335419,34.647655 86.661942,35.308067 85.178612,36.661324 
	C87.441933,36.770046 89.705254,36.878769 92.586395,36.955296 
	C93.048836,36.608547 93.511276,36.261799 94.093170,35.406155 
	C94.382332,35.226116 94.671494,35.046074 95.034966,35.520298 
	C95.430305,35.991489 95.825653,36.462685 96.502251,36.908539 
	C96.502251,36.908539 96.783974,36.889168 97.633659,36.962769 
	C100.516373,37.341442 103.399086,37.720116 106.874565,38.176651 
	C105.086441,35.972881 104.032158,34.673531 102.738625,33.079315 
	C106.104172,33.925999 108.316055,34.482449 110.399216,35.633980 
	C110.526085,35.792130 110.652962,35.950279 111.173569,36.798531 
M218.714279,49.546749 
	C218.200134,49.307938 217.685974,49.069126 217.082458,48.412727 
	C217.082458,48.412727 217.002426,47.992977 216.868225,47.271622 
	C214.942383,45.527359 213.187927,44.902412 211.917175,48.395134 
	C211.917175,48.395134 211.899216,48.783970 211.319016,48.848251 
	C210.940430,48.937382 210.561829,49.026516 209.548584,49.007793 
	C209.334167,48.999516 209.119751,48.991234 208.836990,48.324814 
	C207.651321,47.283718 206.465652,46.242619 205.147980,45.085613 
	C204.425751,45.735580 203.720520,46.370243 202.189072,46.990147 
	C201.525177,46.949532 200.850906,46.813622 200.199188,46.884640 
	C197.230682,47.208103 192.622665,46.607536 191.685410,48.178055 
	C190.238174,50.603115 191.304077,54.527958 191.304077,57.872074 
	C197.441757,57.663525 192.388580,48.612640 200.178055,50.083183 
	C199.565857,52.523178 198.981613,54.851784 198.397385,57.180389 
	C198.713120,57.499557 199.028870,57.818729 199.344620,58.137901 
	C200.235977,57.100281 201.419296,56.191093 201.946259,54.993176 
	C202.635880,53.425480 202.806870,51.629646 203.700897,50.522881 
	C203.776367,51.955376 203.516785,53.515453 204.002731,54.791649 
	C204.811508,56.915649 206.164764,58.600079 209.010559,56.094818 
	C209.593262,56.095318 210.175964,56.095818 211.487381,56.348598 
	C212.000153,56.365513 212.512939,56.382423 213.061783,57.001549 
	C214.022156,56.278503 214.982529,55.555458 216.105927,55.613750 
	C217.511505,56.004261 218.917099,56.394772 220.918091,57.095108 
	C222.736420,56.725628 224.554733,56.356148 226.982269,55.906227 
	C227.005386,54.864147 227.028503,53.822063 226.932266,52.217773 
	C226.122498,51.704975 225.312729,51.192181 225.256454,51.156548 
	C225.715668,49.674019 226.099899,48.433578 226.484116,47.193138 
	C224.895844,47.105549 223.219559,46.680550 221.753830,47.062809 
	C220.935501,47.276222 220.466965,48.830803 219.479889,49.920357 
	C219.479889,49.920357 219.098969,49.984966 218.714279,49.546749 
M143.991531,55.990616 
	C143.991531,55.990616 143.965942,55.927532 144.509598,56.087704 
	C145.017349,56.327675 145.525101,56.567646 146.706757,57.008930 
	C148.135956,57.002102 149.565155,56.995270 151.518417,56.970306 
	C151.692139,56.950954 151.865845,56.931606 152.569748,56.958603 
	C152.746689,56.945881 152.923630,56.933155 153.927673,57.140472 
	C156.291428,56.427616 158.655197,55.714760 161.738663,55.125393 
	C163.004272,56.065033 164.388474,57.927601 165.514755,57.782890 
	C170.135788,57.189140 175.781815,60.005936 179.071381,54.229767 
	C179.217575,53.973087 179.993042,54.074795 180.573807,54.760769 
	C183.411484,58.555950 187.859741,58.383259 189.920761,53.548271 
	C189.911072,47.119984 188.960190,46.267185 182.494919,46.625443 
	C178.150238,46.866199 173.799271,46.993946 168.999298,47.190784 
	C167.805176,48.462761 174.666748,53.202637 167.619888,53.023262 
	C166.883972,50.515583 166.228577,48.282227 165.480011,45.731445 
	C163.185532,46.946896 161.627777,47.772091 159.535553,48.184380 
	C157.347931,48.119377 155.160294,48.054375 152.357178,47.987946 
	C151.948486,47.968086 151.539795,47.948223 150.737228,47.367054 
	C149.713577,46.261261 148.689926,45.155464 147.631088,44.011658 
	C146.078110,44.813343 144.700058,45.524731 142.601959,46.095318 
	C142.359756,46.091503 142.117569,46.087688 141.223648,46.073189 
	C140.485718,46.398800 139.747803,46.724411 138.515076,46.999588 
	C138.515076,46.999588 138.017807,47.009506 137.386276,47.078701 
	C136.916580,47.686852 136.446899,48.295002 135.492020,48.960239 
	C135.492020,48.960239 135.004868,48.996902 134.489594,48.519634 
	C132.002350,48.350246 129.515106,48.180859 126.086609,48.013706 
	C125.172745,48.209618 124.258873,48.405533 123.129028,47.875835 
	C123.164856,47.626038 123.200684,47.376236 123.977119,46.880608 
	C125.583473,42.780373 122.497208,43.485348 119.863251,43.465553 
	C119.414818,43.376575 118.966385,43.287598 117.801003,43.082588 
	C117.201881,43.385754 116.602768,43.688919 115.506790,44.647675 
	C115.506790,48.674419 115.506790,52.701168 115.506790,56.727913 
	C115.962830,56.748421 116.418877,56.768925 116.874916,56.789429 
	C117.339233,55.197651 117.803558,53.605873 118.409073,51.530037 
	C119.730988,52.203312 120.826004,52.761021 121.582550,53.884518 
	C121.855637,55.098953 122.128716,56.313389 122.401794,57.527828 
	C122.951019,56.969238 123.500237,56.410648 124.725914,55.857101 
	C126.150978,55.907173 127.576035,55.957249 129.104645,56.769291 
	C133.430847,56.855980 137.757050,56.942669 142.649887,56.970009 
	C143.104080,56.665134 143.558289,56.360260 143.991531,55.990616 
M106.870789,47.198105 
	C103.938873,47.117790 101.006950,47.037472 97.825546,46.509266 
	C97.367783,46.328617 96.910011,46.147968 95.912056,45.339207 
	C92.707024,44.768639 89.501999,44.198071 85.141022,43.421719 
	C85.906532,49.051666 86.463852,53.150482 87.584625,57.764862 
	C91.496132,56.455105 95.407646,55.145348 99.781563,54.203060 
	C100.181831,54.873764 100.582100,55.544472 101.182144,56.937351 
	C103.538788,56.972122 106.786659,57.938320 107.999550,56.777763 
	C109.194801,55.634083 108.328758,52.336159 108.095901,49.409256 
	C107.738480,48.917141 107.381058,48.425026 106.870789,47.198105 
M104.517090,26.414202 
	C104.517090,26.414202 104.582054,26.524160 104.517090,26.414202 
z"/>
<path fill="#C11849" opacity="1.000000" stroke="none" 
	d="
M1.000000,79.471199 
	C1.984567,78.888298 2.969140,78.678757 3.953701,78.678810 
	C94.667999,78.683838 185.382294,78.704895 276.548279,78.862442 
	C277.000000,84.325661 277.000000,89.651321 277.000000,94.960373 
	C184.999985,94.960373 92.999985,94.960373 1.000000,94.960373 
	C1.000000,89.927963 1.000000,84.935181 1.000000,79.471199 
z"/>
<path fill="#EBEBEB" opacity="1.000000" stroke="none" 
	d="
M277.000000,2.750000 
	C185.312439,2.999564 93.624878,2.999128 1.468657,2.999346 
	C1.000000,3.000000 1.000000,2.500000 1.217767,2.139669 
	C1.711906,1.583462 1.900061,1.323682 2.000000,1.000000 
	C93.020897,1.000000 184.041794,1.000000 275.639282,1.219011 
	C276.419159,1.706360 276.680542,1.893686 277.000000,2.000000 
	C277.000000,2.000000 277.000000,2.500000 277.000000,2.750000 
z"/>
<path fill="#F5F1F1" opacity="1.000000" stroke="none" 
	d="
M1.000000,25.333332 
	C1.514713,25.234106 2.029426,25.468214 2.544139,25.702320 
	C2.227109,26.107374 1.910079,26.512430 1.296524,26.958742 
	C1.000000,26.555555 1.000000,26.111111 1.000000,25.333332 
z"/>
<path fill="#F3F3F3" opacity="1.000000" stroke="none" 
	d="
M277.000000,1.500000 
	C276.680542,1.893686 276.419159,1.706360 276.107910,1.219011 
	C276.333344,1.000000 276.666656,1.000000 277.000000,1.500000 
z"/>
<path fill="#F3F3F3" opacity="1.000000" stroke="none" 
	d="
M1.500000,1.000000 
	C1.900061,1.323682 1.711906,1.583462 1.217767,1.889669 
	C1.000000,1.666667 1.000000,1.333333 1.500000,1.000000 
z"/>
<path fill="#C12552" opacity="1.000000" stroke="none" 
	d="
M6.736525,22.053606 
	C7.132812,21.646936 7.529098,21.240265 8.308828,20.459808 
	C8.957172,19.774151 9.222073,19.462282 9.486973,19.150414 
	C11.131647,18.482309 12.776321,17.814203 15.187666,17.076624 
	C33.619751,16.925966 51.285168,16.844784 68.950584,16.763599 
	C71.880249,18.057762 74.809906,19.351925 78.042725,21.052345 
	C78.485863,21.736601 78.710609,21.858702 79.020126,21.824905 
	C79.020126,21.824905 78.992065,21.968775 79.075813,22.241371 
	C79.417564,22.724602 79.675568,22.935234 79.933571,23.145868 
	C79.959999,23.320156 79.986427,23.494442 80.148972,24.122803 
	C80.472267,24.851877 80.659462,25.126879 80.846649,25.401882 
	C80.786057,34.451336 80.725464,43.500793 80.488342,53.175674 
	C80.215477,54.196510 80.119133,54.591927 80.022797,54.987339 
	C80.022797,54.987339 79.773239,55.150738 79.526878,55.462330 
	C79.091805,56.148125 78.903091,56.522327 78.714378,56.896530 
	C76.677132,58.229622 74.639893,59.562717 72.045380,60.998905 
	C71.488121,61.101997 71.044052,61.330460 71.044052,61.330460 
	C59.643429,61.318005 48.242802,61.305546 36.169884,61.308147 
	C35.497589,61.323204 35.072865,61.503536 35.072865,61.503536 
	C28.669876,61.414894 22.266888,61.326248 15.099083,61.155495 
	C13.892230,61.056568 13.450192,61.039749 13.008154,61.022926 
	C11.938925,60.360027 10.869696,59.697124 9.377678,58.738136 
	C8.645773,58.282951 8.336658,58.123852 8.027542,57.964748 
	C8.027543,57.964748 7.999985,58.000153 7.961244,57.723778 
	C7.635695,57.252544 7.348888,57.057682 7.062082,56.862823 
	C6.854478,56.346661 6.646875,55.830498 6.225886,54.827446 
	C5.732282,53.752281 5.452063,53.164001 5.171844,52.575722 
	C5.178578,50.322372 5.185311,48.069023 5.206916,45.080696 
	C5.142001,43.901226 5.062213,43.456734 4.982427,43.012238 
	C5.337437,36.636475 5.692448,30.260715 6.293475,23.439913 
	C6.605170,22.681116 6.670847,22.367361 6.736525,22.053606 
M16.032337,27.017300 
	C16.032337,27.017300 16.102701,27.093027 15.455055,27.079321 
	C15.022212,27.487442 14.589368,27.895565 13.743974,28.904968 
	C10.987898,32.421165 11.048387,35.903084 13.914915,39.955746 
	C14.361407,40.245663 14.807899,40.535583 16.017910,40.788681 
	C16.999819,41.042095 17.981726,41.295509 19.255991,41.859951 
	C19.255991,41.859951 19.660782,41.997417 19.660782,41.997417 
	C19.660782,41.997417 20.082582,41.927654 20.870985,42.005283 
	C23.142473,42.957806 25.413963,43.910324 26.903784,44.934830 
	C24.941469,45.268440 22.979156,45.602055 20.286858,45.866234 
	C13.605967,43.662083 13.605967,43.662083 12.098021,49.119770 
	C20.292740,54.621258 30.082949,54.095249 36.545967,47.937672 
	C37.046474,47.952950 37.546986,47.968224 38.158878,48.817596 
	C37.758186,54.676491 41.450882,52.938725 45.038841,52.586624 
	C45.038841,48.832397 45.014400,45.387691 45.045532,41.943489 
	C45.078426,38.304768 45.164280,34.666523 45.894218,31.013401 
	C46.561596,31.013895 47.228977,31.014389 48.077423,31.935287 
	C48.093586,36.926300 48.116299,41.917297 48.124298,46.908325 
	C48.135082,53.635757 48.382862,53.829102 55.522812,52.325352 
	C55.763176,50.335018 56.014584,48.253235 56.480995,44.391083 
	C59.556564,46.418060 62.321945,47.437584 63.846043,49.414215 
	C66.907845,53.385101 70.499680,53.573032 75.365166,52.443020 
	C73.042458,49.419113 70.995415,46.754097 68.872940,43.990875 
	C73.064957,40.796581 76.564522,37.526707 74.300934,32.090347 
	C72.059509,26.707230 67.252106,26.135906 62.195690,26.245642 
	C58.869774,26.317818 55.527580,26.077084 52.219368,26.328171 
	C50.749950,26.439699 49.346424,27.419344 47.238556,27.993610 
	C46.563736,27.987398 45.888920,27.981188 44.994003,27.398468 
	C44.651962,26.898272 44.309917,26.398077 43.535656,25.405359 
	C42.026150,25.613867 40.059826,22.357391 38.650566,26.537615 
	C38.415379,27.357552 38.180187,28.177488 37.186844,28.995773 
	C36.428963,29.013813 35.671085,29.031855 34.234310,28.867125 
	C31.820362,27.892118 29.406412,26.917114 26.501070,25.409599 
	C24.672176,25.554388 22.843285,25.699177 20.359570,26.062267 
	C19.453009,26.198162 18.546446,26.334057 17.008062,26.339170 
	C16.690741,26.598749 16.373419,26.858326 16.032337,27.017300 
z"/>
<path fill="#F5F1F1" opacity="1.000000" stroke="none" 
	d="
M160.070007,48.597282 
	C161.627777,47.772091 163.185532,46.946896 165.480011,45.731445 
	C166.228577,48.282227 166.883972,50.515583 167.619888,53.023262 
	C174.666748,53.202637 167.805176,48.462761 168.999298,47.190784 
	C173.799271,46.993946 178.150238,46.866199 182.494919,46.625443 
	C188.960190,46.267185 189.911072,47.119984 189.543625,53.913891 
	C185.448074,50.268898 183.305573,50.202351 180.475403,54.009567 
	C179.993042,54.074795 179.217575,53.973087 179.071381,54.229767 
	C175.781815,60.005936 170.135788,57.189140 165.514755,57.782890 
	C164.388474,57.927601 163.004272,56.065033 161.287384,54.659592 
	C160.580734,52.328289 160.325378,50.462784 160.070007,48.597282 
z"/>
<path fill="#F5F1F1" opacity="1.000000" stroke="none" 
	d="
M127.903816,28.046431 
	C133.397781,25.894955 138.894287,25.841040 144.875488,28.378931 
	C146.656754,29.087961 147.956055,29.444391 149.139526,30.051580 
	C148.990509,30.483477 148.957336,30.664612 148.634247,30.922186 
	C147.890167,31.326653 147.436035,31.654678 146.668396,31.989895 
	C146.328705,33.009773 146.302505,34.022457 146.145477,35.241760 
	C145.919342,35.927666 145.824036,36.406952 145.728729,36.886238 
	C141.432617,38.628807 138.477722,37.982758 138.521988,32.274204 
	C135.779419,33.386292 138.798676,39.578014 133.412430,37.421688 
	C135.187500,30.637905 134.932861,30.283310 128.477371,30.639633 
	C128.008011,29.535374 127.955917,28.790903 127.903816,28.046431 
M135.570038,29.503727 
	C135.570038,29.503727 135.465607,29.562956 135.570038,29.503727 
z"/>
<path fill="#D5D2D0" opacity="1.000000" stroke="none" 
	d="
M234.312241,34.806648 
	C233.129578,35.841591 231.946930,36.876537 230.392578,37.634945 
	C229.903397,36.838821 229.785904,36.319241 229.668411,35.799660 
	C229.499252,35.809566 229.330093,35.819473 229.160934,35.829380 
	C229.104340,36.551147 229.047729,37.272915 228.991119,37.994682 
	C226.461288,37.941936 223.357025,38.981583 223.126740,34.127453 
	C222.822159,32.881489 222.371216,32.342102 221.848236,31.620457 
	C221.638077,31.181345 221.423187,31.053541 221.015106,30.774784 
	C220.577560,30.008467 220.256454,29.522152 219.935364,29.035841 
	C222.396103,28.332462 224.856827,27.629082 227.879944,26.850769 
	C228.720703,26.588270 228.876862,26.327480 228.910812,25.993465 
	C229.716690,24.806395 230.522568,23.619320 231.328430,22.432247 
	C231.910873,24.337843 232.493332,26.243439 233.087372,28.869144 
	C233.421631,30.073336 233.744263,30.557421 234.116562,31.416645 
	C234.214905,32.796738 234.263565,33.801693 234.312241,34.806648 
M224.189026,34.437119 
	C224.356430,34.505920 224.523834,34.574718 224.691223,34.643524 
	C224.641373,34.453289 224.591507,34.263054 224.189026,34.437119 
z"/>
<path fill="#E4E3E1" opacity="1.000000" stroke="none" 
	d="
M96.452248,45.967319 
	C96.910011,46.147968 97.367783,46.328617 98.047943,47.019165 
	C98.875122,48.030571 99.479919,48.532074 100.088341,49.296555 
	C100.125084,49.731712 100.158195,49.903893 100.105644,50.395233 
	C99.786369,51.754795 99.552765,52.795193 99.319153,53.835587 
	C95.407646,55.145348 91.496132,56.455105 87.453369,57.097191 
	C87.758156,52.996647 88.194206,49.563774 88.651039,45.967319 
	C91.375900,45.967319 93.914078,45.967319 96.452248,45.967319 
z"/>
<path fill="#F5F1F1" opacity="1.000000" stroke="none" 
	d="
M96.976204,28.087866 
	C97.316948,27.046585 97.657692,26.005304 98.011971,24.922649 
	C100.133995,26.960773 101.670616,28.436636 103.939377,29.968601 
	C105.449570,29.590385 106.227608,29.156067 107.005653,28.721745 
	C107.453514,28.472015 107.901382,28.222284 108.677017,28.373554 
	C109.999352,29.365980 110.993904,29.957405 111.875702,30.826086 
	C111.847710,31.882252 111.932465,32.661160 111.508507,33.335716 
	C110.842506,33.833874 110.685219,34.436386 110.527939,35.038898 
	C108.316055,34.482449 106.104172,33.925999 102.738625,33.079315 
	C104.032158,34.673531 105.086441,35.972881 106.874565,38.176651 
	C103.399086,37.720116 100.516373,37.341442 97.283493,36.492516 
	C96.947617,33.377464 96.961914,30.732664 96.976204,28.087866 
z"/>
<path fill="#F5F1F1" opacity="1.000000" stroke="none" 
	d="
M176.529953,33.807972 
	C175.230225,34.736206 173.930481,35.664440 172.630737,36.592674 
	C172.819305,36.990387 173.007858,37.388096 173.196411,37.785805 
	C172.722443,37.785805 172.236511,37.716633 171.776337,37.796280 
	C165.779892,38.834167 163.432037,35.654655 162.573944,29.869522 
	C162.200729,29.327805 162.254044,29.157001 162.307358,28.986198 
	C166.473343,28.640635 170.639313,28.295069 175.267303,28.389917 
	C175.996185,30.489544 176.263077,32.148758 176.529953,33.807972 
M166.180801,32.612190 
	C167.333878,32.803905 168.486954,32.995617 169.640030,33.187328 
	C169.504425,32.442627 169.368820,31.697926 169.233215,30.953222 
	C168.234680,31.269976 167.236160,31.586729 166.180801,32.612190 
M172.484467,31.588322 
	C172.484467,31.588322 172.417923,31.476778 172.484467,31.588322 
z"/>
<path fill="#F5F1F1" opacity="1.000000" stroke="none" 
	d="
M203.200958,49.931946 
	C202.806870,51.629646 202.635880,53.425480 201.946259,54.993176 
	C201.419296,56.191093 200.235977,57.100281 199.344620,58.137901 
	C199.028870,57.818729 198.713120,57.499557 198.397385,57.180389 
	C198.981613,54.851784 199.565857,52.523178 200.178055,50.083183 
	C192.388580,48.612640 197.441757,57.663525 191.304077,57.872074 
	C191.304077,54.527958 190.238174,50.603115 191.685410,48.178055 
	C192.622665,46.607536 197.230682,47.208103 200.199188,46.884640 
	C200.850906,46.813622 201.525177,46.949532 202.516571,47.375099 
	C202.963043,48.484020 203.082001,49.207985 203.200958,49.931946 
z"/>
<path fill="#555351" opacity="1.000000" stroke="none" 
	d="
M123.236511,47.126438 
	C123.200684,47.376236 123.164856,47.626038 123.400696,48.449291 
	C123.800217,49.343658 123.928070,49.664574 123.764587,50.213692 
	C123.287331,51.407921 123.101425,52.373955 122.667236,53.318748 
	C122.418953,53.297508 121.921021,53.318729 121.921021,53.318729 
	C120.826004,52.761021 119.730988,52.203312 118.409073,51.530037 
	C117.803558,53.605873 117.339233,55.197651 116.874916,56.789429 
	C116.418877,56.768925 115.962830,56.748421 115.506790,56.727913 
	C115.506790,52.701168 115.506790,48.674419 115.890213,44.594620 
	C117.021736,44.093918 117.769844,43.646271 118.517952,43.198624 
	C118.966385,43.287598 119.414818,43.376575 120.084816,43.726952 
	C121.283089,45.034378 122.259804,46.080406 123.236511,47.126438 
z"/>
<path fill="#6B6765" opacity="1.000000" stroke="none" 
	d="
M122.915527,53.339981 
	C123.101425,52.373955 123.287331,51.407921 124.094284,50.241943 
	C125.486168,49.365154 126.257019,48.688313 127.027870,48.011471 
	C129.515106,48.180859 132.002350,48.350246 134.798798,49.130394 
	C135.323685,50.190842 135.539352,50.640530 135.539795,51.442299 
	C134.123657,52.111740 132.730865,52.152725 131.771927,52.818565 
	C130.650803,53.597023 129.908020,54.920364 129.001099,56.007324 
	C127.576035,55.957249 126.150978,55.907173 124.363083,55.571541 
	C123.638672,54.637314 123.277100,53.988647 122.915527,53.339981 
z"/>
<path fill="#635F5D" opacity="1.000000" stroke="none" 
	d="
M234.521057,35.072815 
	C234.263565,33.801693 234.214905,32.796738 234.247498,31.134907 
	C234.425522,30.077702 234.522263,29.677374 234.619003,29.277050 
	C235.035080,29.008438 235.476654,28.476160 235.863144,28.513540 
	C238.593048,28.777576 241.311630,29.158598 244.033829,29.502295 
	C243.716400,31.755039 244.190598,34.770420 242.912216,36.097439 
	C240.456314,38.646763 237.224869,38.264214 234.521057,35.072815 
M241.837357,33.419502 
	C241.089691,32.036758 240.342041,30.654016 239.594376,29.271280 
	C238.798935,29.719427 237.513016,30.015385 237.316315,30.649321 
	C236.971237,31.761421 237.293594,33.080627 237.336380,34.313076 
	C238.722336,34.262768 240.108276,34.212456 241.837357,33.419502 
z"/>
<path fill="#6A6665" opacity="1.000000" stroke="none" 
	d="
M159.802780,48.390831 
	C160.325378,50.462784 160.580734,52.328289 160.927521,54.597847 
	C158.655197,55.714760 156.291428,56.427616 153.471466,56.799133 
	C153.015274,56.457798 152.854828,56.015530 152.922913,55.645828 
	C154.242676,53.434498 155.494339,51.592869 156.746582,49.750408 
	C155.859085,49.336269 154.415878,48.662819 152.972672,47.989372 
	C155.160294,48.054375 157.347931,48.119377 159.802780,48.390831 
z"/>
<path fill="#D9D7D5" opacity="1.000000" stroke="none" 
	d="
M129.052872,56.388306 
	C129.908020,54.920364 130.650803,53.597023 131.771927,52.818565 
	C132.730865,52.152725 134.123657,52.111740 135.841644,51.443481 
	C138.242172,52.745701 140.125610,54.398823 142.017303,56.297077 
	C142.025574,56.542210 142.083252,57.029358 142.083252,57.029358 
	C137.757050,56.942669 133.430847,56.855980 129.052872,56.388306 
z"/>
<path fill="#4B4847" opacity="1.000000" stroke="none" 
	d="
M90.802544,33.984394 
	C89.543320,32.745815 88.208649,31.573112 87.050247,30.246494 
	C86.218544,29.294018 85.622375,28.135870 84.921135,27.069477 
	C85.983238,26.374195 87.045341,25.678911 88.550827,25.299191 
	C89.040916,26.513697 89.087601,27.412640 89.134293,28.311581 
	C90.370300,28.989037 91.606308,29.666491 93.021500,30.994709 
	C94.132790,32.081532 95.064896,32.517590 95.997131,33.220383 
	C95.997780,33.664936 95.998299,33.842754 95.745193,34.034103 
	C95.314606,34.320431 95.137627,34.593231 94.960655,34.866035 
	C94.671494,35.046074 94.382332,35.226116 93.722565,35.732162 
	C92.890831,36.367947 92.429703,36.677719 91.968575,36.987488 
	C89.705254,36.878769 87.441933,36.770046 85.465927,36.227737 
	C87.436348,35.190903 89.119446,34.587646 90.802544,33.984394 
z"/>
<path fill="#534F4D" opacity="1.000000" stroke="none" 
	d="
M221.920273,31.802715 
	C222.371216,32.342102 222.822159,32.881489 223.138611,33.736271 
	C222.349625,34.514595 221.359467,34.836662 221.096268,35.463810 
	C219.628403,38.961636 217.766083,39.548389 215.007523,35.909626 
	C215.264526,33.895294 215.679733,32.534603 216.407593,31.129530 
	C217.010025,30.663704 217.299805,30.242262 217.589584,29.820820 
	C217.038132,29.652571 216.486694,29.484324 215.535614,29.275604 
	C214.336090,29.173616 213.536179,29.112106 212.736282,29.050594 
	C213.261337,28.641386 213.786377,28.232176 215.018616,27.762852 
	C216.491013,27.691015 217.256226,27.679298 218.021454,27.667578 
	C218.512604,27.991081 219.003769,28.314585 219.715149,28.836964 
	C220.256454,29.522152 220.577560,30.008467 221.011993,31.008512 
	C221.125320,31.522243 221.455521,31.853170 221.455521,31.853170 
	C221.455521,31.853170 221.920273,31.802717 221.920273,31.802715 
z"/>
<path fill="#CDCAC8" opacity="1.000000" stroke="none" 
	d="
M143.321991,46.236118 
	C144.700058,45.524731 146.078110,44.813343 147.631088,44.011658 
	C148.689926,45.155464 149.713577,46.261261 150.626022,47.866745 
	C147.974625,51.390610 149.035736,54.214485 150.994354,56.988441 
	C149.565155,56.995270 148.135956,57.002102 146.357178,56.747925 
	C146.007584,56.486919 145.978683,56.163280 146.164612,56.030128 
	C146.611008,55.719555 146.785049,55.479542 146.901321,54.777592 
	C147.742340,51.009178 145.487946,49.471607 143.135651,47.703770 
	C143.207230,47.016403 143.264618,46.626263 143.321991,46.236118 
z"/>
<path fill="#F5F1F1" opacity="1.000000" stroke="none" 
	d="
M68.626778,16.514679 
	C51.285168,16.844784 33.619751,16.925966 15.493979,16.931503 
	C15.612753,16.579784 16.192392,16.061621 16.770945,16.062836 
	C33.948353,16.098862 51.125652,16.186388 68.626778,16.514679 
z"/>
<path fill="#605D5B" opacity="1.000000" stroke="none" 
	d="
M176.641968,34.116364 
	C176.263077,32.148758 175.996185,30.489544 175.651215,28.402740 
	C177.065872,27.816481 176.821228,23.031223 179.851013,27.014526 
	C180.611053,28.038883 181.174591,28.491215 181.344437,29.022835 
	C177.774734,32.067642 180.256927,34.572681 181.607300,37.169830 
	C179.154068,37.731915 177.152664,37.495163 176.641968,34.116364 
z"/>
<path fill="#777572" opacity="1.000000" stroke="none" 
	d="
M180.524597,54.385170 
	C183.305573,50.202351 185.448074,50.268898 189.465637,54.341732 
	C187.859741,58.383259 183.411484,58.555950 180.524597,54.385170 
z"/>
<path fill="#4F4C49" opacity="1.000000" stroke="none" 
	d="
M199.025589,27.562271 
	C200.285522,27.724476 201.545456,27.886679 203.143219,28.474125 
	C203.386078,30.940798 203.291138,32.982227 202.873260,35.105896 
	C201.984787,35.796089 201.419235,36.404037 200.840805,36.631794 
	C200.874771,35.765274 201.074158,35.232273 200.942093,34.800701 
	C200.371582,32.936470 199.704010,31.101934 199.071762,29.256590 
	C198.067322,29.868711 197.062897,30.480835 196.058456,31.092957 
	C197.067368,32.738163 198.064697,34.390675 199.094193,36.022903 
	C199.321228,36.382858 199.662277,36.670902 199.956238,37.018131 
	C199.961639,37.044201 200.011475,37.062984 199.595367,37.091087 
	C197.793976,37.059891 196.408676,37.000587 195.023376,36.941284 
	C194.640152,36.457386 194.256927,35.973495 193.507782,35.036919 
	C193.092560,33.055424 193.043243,31.526609 192.993927,29.997795 
	C194.113449,29.284216 195.232986,28.570637 197.004776,27.787104 
	C198.113220,27.665524 198.569412,27.613897 199.025589,27.562271 
z"/>
<path fill="#D8D5D2" opacity="1.000000" stroke="none" 
	d="
M181.931946,37.130592 
	C180.256927,34.572681 177.774734,32.067642 181.720978,29.039145 
	C183.244446,28.964321 183.997635,28.952478 184.820068,29.352345 
	C184.921021,30.873537 184.952728,31.983025 185.048325,33.403404 
	C185.729416,34.805180 186.346603,35.896057 186.963806,36.986938 
	C185.394730,37.021748 183.825653,37.056553 181.931946,37.130592 
z"/>
<path fill="#605D5B" opacity="1.000000" stroke="none" 
	d="
M96.182152,45.653263 
	C93.914078,45.967319 91.375900,45.967319 88.651039,45.967319 
	C88.194206,49.563774 87.758156,52.996647 87.171638,56.839409 
	C86.463852,53.150482 85.906532,49.051666 85.141022,43.421719 
	C89.501999,44.198071 92.707024,44.768639 96.182152,45.653263 
z"/>
<path fill="#D4D2CF" opacity="1.000000" stroke="none" 
	d="
M151.256378,56.979374 
	C149.035736,54.214485 147.974625,51.390610 150.822968,48.147400 
	C151.539795,47.948223 151.948486,47.968086 152.664917,47.988655 
	C154.415878,48.662819 155.859085,49.336269 156.746582,49.750408 
	C155.494339,51.592869 154.242676,53.434498 152.742172,55.750576 
	C152.270584,56.406883 152.119324,56.635960 152.039566,56.912258 
	C151.865845,56.931606 151.692139,56.950954 151.256378,56.979374 
z"/>
<path fill="#F5F1F1" opacity="1.000000" stroke="none" 
	d="
M108.367104,49.983406 
	C108.328758,52.336159 109.194801,55.634083 107.999550,56.777763 
	C106.786659,57.938320 103.538788,56.972122 101.405029,56.505112 
	C102.029762,55.122238 102.431610,54.171604 102.395760,54.256416 
	C104.827980,52.515957 106.597542,51.249683 108.367104,49.983406 
z"/>
<path fill="#D4D2CF" opacity="1.000000" stroke="none" 
	d="
M143.121429,48.000996 
	C145.487946,49.471607 147.742340,51.009178 146.681824,54.860733 
	C146.175049,55.557110 146.023392,55.830463 145.978683,56.163280 
	C145.978683,56.163280 146.007584,56.486919 146.020218,56.647266 
	C145.525101,56.567646 145.017349,56.327675 144.246170,55.636391 
	C143.028183,53.839062 142.001617,52.537243 141.140060,51.134125 
	C140.338593,49.828873 139.712921,48.415684 139.009872,47.050018 
	C139.747803,46.724411 140.485718,46.398800 141.576935,46.397366 
	C141.951614,47.149204 141.973038,47.576866 141.779358,48.165104 
	C141.609558,48.722397 141.654861,49.119118 141.700165,49.515839 
	C142.137360,49.040543 142.574554,48.565243 143.030289,48.056755 
	C143.048828,48.023571 143.121429,48.000996 143.121429,48.000996 
z"/>
<path fill="#615F5D" opacity="1.000000" stroke="none" 
	d="
M203.450928,50.227413 
	C203.082001,49.207985 202.963043,48.484020 202.929688,47.382484 
	C203.720520,46.370243 204.425751,45.735580 205.147980,45.085613 
	C206.465652,46.242619 207.651321,47.283718 208.494766,48.690674 
	C204.550339,51.522266 205.266983,53.805706 208.445007,55.985245 
	C206.164764,58.600079 204.811508,56.915649 204.002731,54.791649 
	C203.516785,53.515453 203.776367,51.955376 203.450928,50.227413 
z"/>
<path fill="#F5F1F1" opacity="1.000000" stroke="none" 
	d="
M187.371094,36.991280 
	C186.346603,35.896057 185.729416,34.805180 185.464737,33.357544 
	C188.039764,32.187576 191.734909,34.492790 192.211044,29.981438 
	C192.211044,29.981438 192.602844,29.971790 192.798386,29.984791 
	C193.043243,31.526609 193.092560,33.055424 193.237579,34.878094 
	C192.746033,39.631161 189.593811,36.277496 187.371094,36.991280 
z"/>
<path fill="#F5F1F1" opacity="1.000000" stroke="none" 
	d="
M219.840820,49.781021 
	C220.466965,48.830803 220.935501,47.276222 221.753830,47.062809 
	C223.219559,46.680550 224.895844,47.105549 226.484116,47.193138 
	C226.099899,48.433578 225.715668,49.674019 225.256454,51.156548 
	C225.312729,51.192181 226.122498,51.704975 226.611099,52.542007 
	C225.272964,52.826199 224.256012,52.786160 223.047913,52.497742 
	C222.455658,52.181606 222.054565,52.113846 221.387543,51.985104 
	C220.758133,51.932648 220.394608,51.941174 220.024872,51.587841 
	C219.959381,50.744331 219.900101,50.262680 219.840820,49.781021 
z"/>
<path fill="#F5F1F1" opacity="1.000000" stroke="none" 
	d="
M212.503357,29.012459 
	C213.536179,29.112106 214.336090,29.173616 215.547791,29.586311 
	C216.004730,30.349632 216.049835,30.761772 216.094940,31.173912 
	C215.679733,32.534603 215.264526,33.895294 214.829559,35.635574 
	C209.854340,36.930157 211.498901,32.720795 210.411896,30.008518 
	C210.627609,29.342440 210.979675,29.194244 211.331757,29.046051 
	C211.640900,28.973085 211.953781,28.949175 212.503357,29.012459 
z"/>
<path fill="#4F4C49" opacity="1.000000" stroke="none" 
	d="
M108.231506,49.696331 
	C106.597542,51.249683 104.827980,52.515957 102.395760,54.256416 
	C102.431610,54.171604 102.029762,55.122238 101.305145,56.144024 
	C100.582100,55.544472 100.181831,54.873764 99.550362,54.019325 
	C99.552765,52.795193 99.786369,51.754795 100.350113,50.505562 
	C101.167152,50.505249 101.654053,50.713768 102.524750,50.989052 
	C103.920738,50.949162 104.932930,50.842510 105.945122,50.735859 
	C105.972679,50.430511 106.000237,50.125164 106.027802,49.819813 
	C105.067520,49.578838 104.107246,49.337864 102.916656,48.985161 
	C102.471352,48.617641 102.256355,48.361855 102.453033,48.032974 
	C104.251015,47.950890 105.637321,47.941902 107.023636,47.932915 
	C107.381058,48.425026 107.738480,48.917141 108.231506,49.696331 
z"/>
<path fill="#E3E1E0" opacity="1.000000" stroke="none" 
	d="
M112.017220,33.440067 
	C111.932465,32.661160 111.847710,31.882252 112.082031,30.540001 
	C113.245789,29.645693 114.090477,29.314730 114.935165,28.983768 
	C115.354698,28.955477 115.774223,28.927187 116.507156,29.177683 
	C116.843475,29.626051 116.866394,29.795637 116.664825,30.229923 
	C116.575218,32.017105 116.710091,33.539585 116.897537,35.347977 
	C117.119621,35.981342 117.289124,36.328789 117.458633,36.676239 
	C116.911255,36.771275 116.363876,36.866310 115.305420,36.680634 
	C113.951836,35.821815 113.109322,35.243710 112.241028,34.351761 
	C112.149239,33.838638 112.083229,33.639351 112.017220,33.440067 
z"/>
<path fill="#CDCAC8" opacity="1.000000" stroke="none" 
	d="
M138.762482,47.024803 
	C139.712921,48.415684 140.338593,49.828873 141.140060,51.134125 
	C142.001617,52.537243 143.028183,53.839062 143.974335,55.556305 
	C143.965942,55.927532 143.991531,55.990616 143.668030,56.029827 
	C142.899384,56.063339 142.454208,56.057644 142.009048,56.051949 
	C140.125610,54.398823 138.242172,52.745701 136.056885,51.091393 
	C135.539352,50.640530 135.323685,50.190842 135.056427,49.369030 
	C135.004868,48.996902 135.492020,48.960239 136.059296,48.928131 
	C137.090317,48.267185 137.554062,47.638348 138.017807,47.009506 
	C138.017807,47.009506 138.515076,46.999588 138.762482,47.024803 
z"/>
<path fill="#535150" opacity="1.000000" stroke="none" 
	d="
M162.232086,28.600006 
	C162.254044,29.157001 162.200729,29.327805 162.221741,29.756508 
	C161.712006,32.376156 161.127930,34.737904 160.145050,36.610771 
	C159.666794,32.405399 159.587357,28.688898 159.507919,24.972397 
	C163.739914,23.316038 161.426910,27.008259 162.232086,28.600006 
z"/>
<path fill="#D6D3D1" opacity="1.000000" stroke="none" 
	d="
M208.727783,56.040031 
	C205.266983,53.805706 204.550339,51.522266 208.528931,49.019737 
	C209.119751,48.991234 209.334167,48.999516 209.837067,49.469334 
	C210.109238,51.277363 210.092941,52.623852 210.084793,54.255333 
	C210.314865,55.058987 210.536774,55.577648 210.758667,56.096313 
	C210.175964,56.095818 209.593262,56.095318 208.727783,56.040031 
z"/>
<path fill="#E3E1E0" opacity="1.000000" stroke="none" 
	d="
M220.031097,51.949699 
	C220.394608,51.941174 220.758133,51.932648 221.468948,52.225559 
	C221.843079,52.692799 221.869904,52.858601 221.673340,53.016663 
	C221.449921,53.008923 221.002960,52.996964 220.824249,53.081730 
	C220.762787,53.452068 220.880035,53.737644 221.000671,54.245224 
	C221.004044,54.467224 221.010971,54.911232 220.836304,55.104305 
	C220.548660,55.793350 220.435669,56.289318 220.322678,56.785286 
	C218.917099,56.394772 217.511505,56.004261 215.851074,55.036484 
	C214.779770,54.626324 213.963333,54.793427 212.946686,54.767609 
	C212.540237,54.064579 212.333984,53.554478 212.365295,52.929817 
	C212.724335,52.688164 212.845810,52.561066 213.308350,52.523643 
	C214.796494,52.535545 215.943542,52.457771 217.292786,52.456818 
	C218.024002,52.353737 218.553055,52.173840 219.319656,51.989319 
	C219.557205,51.984692 220.031097,51.949699 220.031097,51.949699 
z"/>
<path fill="#6B6765" opacity="1.000000" stroke="none" 
	d="
M192.015259,29.698826 
	C191.734909,34.492790 188.039764,32.187576 185.400833,33.046650 
	C184.952728,31.983025 184.921021,30.873537 184.903519,29.124918 
	C184.917725,28.485785 185.003189,28.008879 185.003189,28.008877 
	C185.442535,27.894428 185.881882,27.779980 186.980301,27.655190 
	C188.102722,27.612434 188.566086,27.580023 189.029434,27.547611 
	C189.959442,28.170481 190.889465,28.793348 192.015259,29.698826 
M187.571945,31.138058 
	C188.016525,30.816761 188.461105,30.495464 188.905701,30.174175 
	C188.266541,29.889093 187.627365,29.604013 186.988190,29.318930 
	C186.930984,29.895363 186.873779,30.471794 187.571945,31.138058 
z"/>
<path fill="#F5F1F1" opacity="1.000000" stroke="none" 
	d="
M203.196198,35.023651 
	C203.291138,32.982227 203.386078,30.940798 203.521988,28.530903 
	C204.071793,28.307224 204.580627,28.452011 205.412354,29.127443 
	C205.881058,30.112564 206.026871,30.567039 206.119537,31.429306 
	C206.130768,33.199203 206.195145,34.561314 206.148941,36.178078 
	C206.026978,36.617466 206.015594,36.802204 206.004227,36.986942 
	C205.500778,37.301922 204.997314,37.616898 204.200195,37.619553 
	C203.669769,36.546036 203.432983,35.784843 203.196198,35.023651 
z"/>
<path fill="#F5F1F1" opacity="1.000000" stroke="none" 
	d="
M159.162079,25.120132 
	C159.587357,28.688898 159.666794,32.405399 159.808380,36.582943 
	C156.210175,33.414845 158.090012,29.289719 159.162079,25.120132 
z"/>
<path fill="#E9E7E5" opacity="1.000000" stroke="none" 
	d="
M126.718155,36.044621 
	C126.205849,36.318268 125.693542,36.591915 124.793594,36.570450 
	C122.505730,35.791836 120.605507,35.308331 118.630196,34.569229 
	C118.473885,33.968948 118.392647,33.624264 118.720360,33.223049 
	C121.061745,33.095829 122.994194,33.025139 125.237648,32.974434 
	C125.962875,33.013897 126.377098,33.033379 126.838928,33.426651 
	C126.830414,34.548504 126.774284,35.296562 126.718155,36.044621 
z"/>
<path fill="#63615F" opacity="1.000000" stroke="none" 
	d="
M146.981888,31.982704 
	C147.436035,31.654678 147.890167,31.326653 148.876938,30.933247 
	C149.528641,30.758825 149.767258,30.589600 149.747543,30.550444 
	C149.613983,30.285210 149.425858,30.047459 149.255371,29.800819 
	C147.956055,29.444391 146.656754,29.087961 145.268768,28.402452 
	C147.318420,28.202890 149.456772,28.332409 151.881104,28.983509 
	C152.110916,29.670444 152.054733,29.835796 151.701050,30.232685 
	C151.213730,31.961178 151.023911,33.458134 150.585403,34.955833 
	C150.336731,34.956577 149.840393,34.925545 149.887451,34.570774 
	C148.945221,33.464561 147.955933,32.713120 146.971741,31.967119 
	C146.976837,31.972563 146.981888,31.982704 146.981888,31.982704 
z"/>
<path fill="#575451" opacity="1.000000" stroke="none" 
	d="
M118.705276,34.824829 
	C120.605507,35.308331 122.505730,35.791836 124.503296,36.590034 
	C122.434235,36.914696 120.267830,36.924660 117.780029,36.805431 
	C117.289124,36.328789 117.119621,35.981342 117.363480,35.295273 
	C118.086319,34.912716 118.395798,34.868771 118.705276,34.824829 
z"/>
<path fill="#F5F1F1" opacity="1.000000" stroke="none" 
	d="
M106.947212,47.565510 
	C105.637321,47.941902 104.251015,47.950890 102.169731,48.008236 
	C101.011414,48.382256 100.548065,48.707916 100.084709,49.033577 
	C99.479919,48.532074 98.875122,48.030571 98.172684,47.243111 
	C101.006950,47.037472 103.938873,47.117790 106.947212,47.565510 
z"/>
<path fill="#535150" opacity="1.000000" stroke="none" 
	d="
M149.840393,34.925545 
	C149.840393,34.925545 150.336731,34.956577 150.732513,35.191475 
	C151.441589,35.613293 151.754868,35.800217 152.257629,35.941334 
	C152.447083,35.895527 152.836792,35.905262 152.836792,35.905258 
	C150.618393,36.351055 148.399979,36.796848 145.955154,37.064442 
	C145.824036,36.406952 145.919342,35.927666 146.281662,35.258221 
	C146.548691,35.068062 146.822601,35.052021 147.190323,35.192276 
	C148.318832,35.196869 149.079605,35.061207 149.840393,34.925545 
z"/>
<path fill="#F5F1F1" opacity="1.000000" stroke="none" 
	d="
M151.998550,30.001146 
	C152.054733,29.835796 152.110916,29.670444 152.198181,29.244991 
	C152.628815,31.193632 153.028366,33.402370 153.132355,35.758186 
	C152.836792,35.905262 152.447083,35.895527 152.371246,35.523907 
	C152.196472,33.435242 152.097504,31.718193 151.998550,30.001146 
z"/>
<path fill="#F5F1F1" opacity="1.000000" stroke="none" 
	d="
M195.015320,37.243858 
	C196.408676,37.000587 197.793976,37.059891 199.555145,37.438213 
	C199.927078,38.223076 199.923172,38.688919 199.915741,39.341446 
	C199.912216,39.528130 199.899597,39.901352 199.526489,39.921967 
	C197.750427,39.546833 196.347458,39.151077 194.944489,38.755322 
	C194.965424,38.352360 194.986343,37.949394 195.015320,37.243858 
z"/>
<path fill="#8B8786" opacity="1.000000" stroke="none" 
	d="
M220.620392,56.940197 
	C220.435669,56.289318 220.548660,55.793350 221.211838,55.129135 
	C222.500305,54.879047 223.238586,54.797207 224.249359,54.932461 
	C225.138947,55.428593 225.755997,55.707634 226.373062,55.986671 
	C224.554733,56.356148 222.736420,56.725628 220.620392,56.940197 
z"/>
<path fill="#DDD9D6" opacity="1.000000" stroke="none" 
	d="
M194.688812,39.003723 
	C196.347458,39.151077 197.750427,39.546833 199.571884,39.970161 
	C199.990372,39.997738 200.073593,40.096024 200.075073,40.337696 
	C200.076553,40.579369 200.158844,41.055664 200.158844,41.055664 
	C196.167221,42.672604 195.449829,42.446632 194.688812,39.003723 
z"/>
<path fill="#F5F1F1" opacity="1.000000" stroke="none" 
	d="
M110.006790,26.017296 
	C112.073341,23.302074 112.545525,23.435940 114.559875,27.730360 
	C112.808647,27.374640 111.407722,26.695969 110.006790,26.017296 
z"/>
<path fill="#D4D2CF" opacity="1.000000" stroke="none" 
	d="
M226.677673,55.946449 
	C225.755997,55.707634 225.138947,55.428593 224.122635,54.731262 
	C223.440247,53.930153 223.157089,53.547333 222.963531,53.058449 
	C223.053131,52.952381 223.239044,52.746120 223.239044,52.746120 
	C224.256012,52.786160 225.272964,52.826199 226.670776,52.823112 
	C227.028503,53.822063 227.005386,54.864147 226.677673,55.946449 
z"/>
<path fill="#25221F" opacity="1.000000" stroke="none" 
	d="
M206.259537,35.923424 
	C206.195145,34.561314 206.130768,33.199203 206.344116,31.268639 
	C207.201614,30.618830 207.781418,30.537479 208.361206,30.456131 
	C208.264969,32.034660 208.168732,33.613194 207.721527,35.588226 
	C207.000214,35.964294 206.629883,35.943859 206.259537,35.923424 
z"/>
<path fill="#F5F1F1" opacity="1.000000" stroke="none" 
	d="
M123.606812,47.003525 
	C122.259804,46.080406 121.283089,45.034378 120.300766,43.636627 
	C122.497208,43.485348 125.583473,42.780373 123.606812,47.003525 
z"/>
<path fill="#F5F1F1" opacity="1.000000" stroke="none" 
	d="
M122.667236,53.318745 
	C123.277100,53.988647 123.638672,54.637314 124.024857,55.569016 
	C123.500237,56.410648 122.951019,56.969238 122.401794,57.527828 
	C122.128716,56.313389 121.855637,55.098953 121.751785,53.601624 
	C121.921021,53.318729 122.418953,53.297508 122.667236,53.318745 
z"/>
<path fill="#474543" opacity="1.000000" stroke="none" 
	d="
M109.999634,26.340485 
	C111.407722,26.695969 112.808647,27.374640 114.577637,28.091946 
	C114.945694,28.130585 114.975273,28.557608 114.955215,28.770687 
	C114.090477,29.314730 113.245789,29.645693 112.194778,30.262741 
	C110.993904,29.957405 109.999352,29.365980 108.944351,28.371021 
	C109.253418,27.532883 109.622940,27.098278 109.999634,26.340485 
z"/>
<path fill="#B2AFAC" opacity="1.000000" stroke="none" 
	d="
M199.919250,39.154762 
	C199.923172,38.688919 199.927078,38.223076 199.971237,37.410110 
	C200.011475,37.062984 199.961639,37.044201 200.182953,36.983891 
	C200.404251,36.923580 200.853699,37.011993 200.853699,37.011993 
	C201.419235,36.404037 201.984787,35.796089 202.873260,35.105896 
	C203.432983,35.784843 203.669769,36.546036 203.886124,37.626488 
	C203.397629,38.616619 202.929550,39.287487 202.200653,39.844643 
	C201.266296,39.538872 200.592773,39.346817 199.919250,39.154762 
z"/>
<path fill="#F5F1F1" opacity="1.000000" stroke="none" 
	d="
M90.405716,33.985821 
	C89.119446,34.587646 87.436348,35.190903 85.370865,35.881317 
	C86.661942,35.308067 88.335419,34.647655 90.405716,33.985821 
z"/>
<path fill="#534F4D" opacity="1.000000" stroke="none" 
	d="
M212.967270,52.433971 
	C212.845810,52.561066 212.724335,52.688164 212.091888,53.003006 
	C211.079483,53.450615 210.578064,53.710476 210.076630,53.970337 
	C210.092941,52.623852 210.109238,51.277363 210.154388,49.523262 
	C210.561829,49.026516 210.940430,48.937382 211.655548,49.139893 
	C212.006195,49.648228 212.020325,49.864925 212.121262,50.319176 
	C212.469131,50.768993 212.730194,50.981251 212.988739,51.400658 
	C212.978912,51.883175 212.972595,52.158562 212.967270,52.433971 
z"/>
<path fill="#F5F1F1" opacity="1.000000" stroke="none" 
	d="
M184.857208,27.714211 
	C185.003189,28.008879 184.917725,28.485785 184.834290,28.713211 
	C183.997635,28.952478 183.244446,28.964321 182.114685,28.959854 
	C181.174591,28.491215 180.611053,28.038883 180.002594,27.295944 
	C181.542191,27.143404 183.126694,27.281471 184.857208,27.714211 
z"/>
<path fill="#F5F1F1" opacity="1.000000" stroke="none" 
	d="
M212.005936,48.016144 
	C213.187927,44.902412 214.942383,45.527359 216.518982,47.612152 
	C214.781799,47.973839 213.393860,47.994991 212.005936,48.016144 
z"/>
<path fill="#534F4D" opacity="1.000000" stroke="none" 
	d="
M122.978745,28.137527 
	C123.434433,28.368259 123.890129,28.598993 124.620712,29.343281 
	C124.933823,30.573965 124.972023,31.291101 124.690613,32.033859 
	C123.615807,31.768108 122.860619,31.476736 122.276840,30.838013 
	C122.233833,30.023155 122.019417,29.555645 122.043579,28.987164 
	C122.514359,28.636635 122.746552,28.387081 122.978745,28.137527 
z"/>
<path fill="#777572" opacity="1.000000" stroke="none" 
	d="
M126.919205,36.317818 
	C126.774284,35.296562 126.830414,34.548504 126.923302,33.013760 
	C126.883072,31.113377 126.806068,29.999678 126.729065,28.885979 
	C126.951088,28.634443 127.173111,28.382906 127.649475,28.088900 
	C127.955917,28.790903 128.008011,29.535374 128.124634,30.647739 
	C128.155258,32.084827 128.121353,33.154022 128.202637,35.002869 
	C128.280212,36.321934 128.242599,36.861340 128.204987,37.400749 
	C127.843407,37.130840 127.481827,36.860924 126.919205,36.317818 
z"/>
<path fill="#575451" opacity="1.000000" stroke="none" 
	d="
M208.642532,30.400728 
	C207.781418,30.537479 207.201614,30.618830 206.397263,30.860847 
	C206.026871,30.567039 205.881058,30.112564 205.603226,29.321945 
	C207.313110,28.740631 209.155014,28.495464 211.164337,28.648172 
	C210.979675,29.194244 210.627609,29.342440 210.134018,29.743773 
	C209.636292,30.113049 209.280075,30.229187 208.642532,30.400728 
z"/>
<path fill="#91908E" opacity="1.000000" stroke="none" 
	d="
M95.998817,34.020576 
	C95.998299,33.842754 95.997780,33.664936 95.990425,32.889755 
	C95.935043,31.855244 95.886490,31.418097 95.837921,30.980947 
	C96.005386,30.094721 96.172852,29.208494 96.658264,28.205067 
	C96.961914,30.732664 96.947617,33.377464 96.858650,36.455715 
	C96.783974,36.889168 96.502251,36.908539 96.293724,36.561150 
	C96.056404,35.482697 96.027611,34.751637 95.998817,34.020576 
z"/>
<path fill="#D6D3D1" opacity="1.000000" stroke="none" 
	d="
M213.146881,54.960529 
	C213.963333,54.793427 214.779770,54.626324 215.769562,54.645821 
	C214.982529,55.555458 214.022156,56.278503 213.063080,56.339588 
	C213.091888,55.438599 213.119385,55.199566 213.146881,54.960529 
z"/>
<path fill="#D2CFCE" opacity="1.000000" stroke="none" 
	d="
M126.406937,28.924339 
	C126.806068,29.999678 126.883072,31.113377 126.875687,32.639969 
	C126.377098,33.033379 125.962875,33.013897 125.282654,32.740051 
	C125.016640,32.485691 125.010231,32.008236 125.010231,32.008236 
	C124.972023,31.291101 124.933823,30.573965 124.845520,29.495993 
	C125.225212,29.077669 125.655014,29.020182 126.406937,28.924339 
z"/>
<path fill="#4B4847" opacity="1.000000" stroke="none" 
	d="
M219.082123,51.993942 
	C218.553055,52.173840 218.024002,52.353737 217.211273,52.019783 
	C216.877579,51.213924 216.827560,50.921928 216.693527,50.483475 
	C216.468246,50.154697 216.378143,49.949867 216.545990,49.498184 
	C216.892456,49.125999 217.032135,48.978157 217.171829,48.830315 
	C217.685974,49.069126 218.200134,49.307938 218.874191,50.099815 
	C219.050110,51.099903 219.066116,51.546921 219.082123,51.993942 
z"/>
<path fill="#F5F1F1" opacity="1.000000" stroke="none" 
	d="
M89.491608,28.163116 
	C89.087601,27.412640 89.040916,26.513697 88.948074,25.327351 
	C89.217590,26.031517 89.533257,27.023085 89.491608,28.163116 
z"/>
<path fill="#4F4C49" opacity="1.000000" stroke="none" 
	d="
M122.744537,27.995108 
	C122.746552,28.387081 122.514359,28.636635 121.724091,28.988108 
	C120.408051,29.373114 119.650093,29.656200 118.688759,29.959507 
	C118.485390,29.979729 118.078865,30.022251 117.781471,30.008171 
	C117.285828,29.984470 117.087570,29.974846 116.889320,29.965223 
	C116.866394,29.795637 116.843475,29.626051 116.822006,29.199780 
	C117.654579,28.555241 118.485695,28.167389 119.981972,27.749783 
	C121.106125,27.679853 121.565109,27.639675 122.024101,27.599499 
	C122.186180,27.683895 122.348259,27.768291 122.744537,27.995108 
z"/>
<path fill="#F5F1F1" opacity="1.000000" stroke="none" 
	d="
M217.956451,27.373320 
	C217.256226,27.679298 216.491013,27.691015 215.349274,27.632246 
	C215.945679,27.400858 216.918564,27.239958 217.956451,27.373320 
z"/>
<path fill="#4B4847" opacity="1.000000" stroke="none" 
	d="
M211.961548,48.205639 
	C213.393860,47.994991 214.781799,47.973839 216.586075,47.972832 
	C217.002426,47.992977 217.082458,48.412727 217.127136,48.621521 
	C217.032135,48.978157 216.892456,49.125999 216.255585,49.336342 
	C214.517075,49.626438 213.275772,49.854031 212.034454,50.081619 
	C212.020325,49.864925 212.006195,49.648228 211.945648,49.107750 
	C211.899216,48.783970 211.917175,48.395134 211.961548,48.205639 
z"/>
<path fill="#F5F1F1" opacity="1.000000" stroke="none" 
	d="
M128.414291,37.562172 
	C128.242599,36.861340 128.280212,36.321934 128.351257,35.376778 
	C128.464310,35.888554 128.543961,36.806072 128.414291,37.562172 
z"/>
<path fill="#635F5D" opacity="1.000000" stroke="none" 
	d="
M112.266808,34.665607 
	C113.109322,35.243710 113.951836,35.821815 114.888657,36.696320 
	C113.713165,36.927990 112.443367,36.863262 111.287712,36.285515 
	C111.690178,35.403534 111.978493,35.034573 112.266808,34.665607 
z"/>
<path fill="#63615F" opacity="1.000000" stroke="none" 
	d="
M212.946686,54.767609 
	C213.119385,55.199566 213.091888,55.438599 213.045044,56.038483 
	C212.512939,56.382423 212.000153,56.365513 211.123032,56.222458 
	C210.536774,55.577648 210.314865,55.058987 210.084793,54.255329 
	C210.578064,53.710476 211.079483,53.450615 211.854340,53.117565 
	C212.333984,53.554478 212.540237,54.064579 212.946686,54.767609 
z"/>
<path fill="#F5F1F1" opacity="1.000000" stroke="none" 
	d="
M95.506409,30.987659 
	C95.886490,31.418097 95.935043,31.855244 95.990303,32.623020 
	C95.064896,32.517590 94.132790,32.081532 93.190445,31.315861 
	C93.845116,30.988956 94.510002,30.991663 95.506409,30.987659 
z"/>
<path fill="#F5F1F1" opacity="1.000000" stroke="none" 
	d="
M4.668798,43.030098 
	C5.062213,43.456734 5.142001,43.901226 5.098042,44.666931 
	C4.201768,44.919399 3.429242,44.850666 1.676359,44.694702 
	C3.112063,43.812138 3.733617,43.430050 4.668798,43.030098 
z"/>
<path fill="#F5F1F1" opacity="1.000000" stroke="none" 
	d="
M126.557236,48.012589 
	C126.257019,48.688313 125.486168,49.365154 124.385620,50.013741 
	C123.928070,49.664574 123.800217,49.343658 123.508682,48.812096 
	C124.258873,48.405533 125.172745,48.209618 126.557236,48.012589 
z"/>
<path fill="#F5F1F1" opacity="1.000000" stroke="none" 
	d="
M198.971191,27.309277 
	C198.569412,27.613897 198.113220,27.665524 197.315933,27.655182 
	C197.622147,27.414238 198.269485,27.235260 198.971191,27.309277 
z"/>
<path fill="#F5F1F1" opacity="1.000000" stroke="none" 
	d="
M118.159477,43.140606 
	C117.769844,43.646271 117.021736,44.093918 116.138641,44.266827 
	C116.602768,43.688919 117.201881,43.385754 118.159477,43.140606 
z"/>
<path fill="#F5F1F1" opacity="1.000000" stroke="none" 
	d="
M188.974579,27.302006 
	C188.566086,27.580023 188.102722,27.612434 187.303436,27.547691 
	C187.618240,27.319157 188.268997,27.187777 188.974579,27.302006 
z"/>
<path fill="#DDD9D6" opacity="1.000000" stroke="none" 
	d="
M199.915741,39.341446 
	C200.592773,39.346817 201.266296,39.538872 201.947174,40.026794 
	C201.841629,40.617252 201.637772,40.820896 201.053802,40.776497 
	C200.604980,40.351582 200.374634,40.177120 200.073593,40.096024 
	C200.073593,40.096024 199.990372,39.997738 199.944977,39.949547 
	C199.899597,39.901352 199.912216,39.528130 199.915741,39.341446 
z"/>
<path fill="#F5F1F1" opacity="1.000000" stroke="none" 
	d="
M121.973526,27.345581 
	C121.565109,27.639675 121.106125,27.679853 120.310524,27.637804 
	C120.623596,27.400940 121.273277,27.246302 121.973526,27.345581 
z"/>
<path fill="#F5F1F1" opacity="1.000000" stroke="none" 
	d="
M137.702042,47.044106 
	C137.554062,47.638348 137.090317,48.267185 136.301880,48.899590 
	C136.446899,48.295002 136.916580,47.686852 137.702042,47.044106 
z"/>
<path fill="#F5F1F1" opacity="1.000000" stroke="none" 
	d="
M95.745193,34.034103 
	C96.027611,34.751637 96.056404,35.482697 96.153091,36.573814 
	C95.825653,36.462685 95.430305,35.991489 94.997810,35.193169 
	C95.137627,34.593231 95.314606,34.320431 95.745193,34.034103 
z"/>
<path fill="#D9D6D3" opacity="1.000000" stroke="none" 
	d="
M106.665680,28.812271 
	C106.227608,29.156067 105.449570,29.590385 104.305893,30.014942 
	C104.735405,29.637720 105.530563,29.270256 106.665680,28.812271 
z"/>
<path fill="#F5F1F1" opacity="1.000000" stroke="none" 
	d="
M229.259644,37.990829 
	C229.047729,37.272915 229.104340,36.551147 229.160934,35.829380 
	C229.330093,35.819473 229.499252,35.809566 229.668411,35.799660 
	C229.785904,36.319241 229.903397,36.838821 230.042725,37.658524 
	C229.885773,37.968090 229.706970,37.977535 229.259644,37.990829 
z"/>
<path fill="#474543" opacity="1.000000" stroke="none" 
	d="
M112.241028,34.351768 
	C111.978493,35.034573 111.690178,35.403534 111.090851,35.940460 
	C110.652962,35.950279 110.526085,35.792130 110.463577,35.336441 
	C110.685219,34.436386 110.842506,33.833874 111.508507,33.335716 
	C112.083229,33.639351 112.149239,33.838638 112.241028,34.351768 
z"/>
<path fill="#F5F1F1" opacity="1.000000" stroke="none" 
	d="
M142.017303,56.297081 
	C142.454208,56.057644 142.899384,56.063339 143.678513,56.062214 
	C143.558289,56.360260 143.104080,56.665134 142.366577,56.999683 
	C142.083252,57.029358 142.025574,56.542210 142.017303,56.297081 
z"/>
<path fill="#ECEBE8" opacity="1.000000" stroke="none" 
	d="
M219.319672,51.989319 
	C219.066116,51.546921 219.050110,51.099903 219.066528,50.318924 
	C219.098969,49.984966 219.479889,49.920357 219.660355,49.850693 
	C219.900101,50.262680 219.959381,50.744331 220.024872,51.587845 
	C220.031097,51.949699 219.557205,51.984692 219.319672,51.989319 
z"/>
<path fill="#F5F1F1" opacity="1.000000" stroke="none" 
	d="
M234.248672,29.188610 
	C234.522263,29.677374 234.425522,30.077702 234.197845,30.759768 
	C233.744263,30.557421 233.421631,30.073336 233.113678,29.278755 
	C233.378357,29.012230 233.628357,29.056202 234.248672,29.188610 
z"/>
<path fill="#F5F1F1" opacity="1.000000" stroke="none" 
	d="
M141.994446,48.004528 
	C141.973038,47.576866 141.951614,47.149204 141.902786,46.402706 
	C142.117569,46.087688 142.359756,46.091503 142.961975,46.165718 
	C143.264618,46.626263 143.207230,47.016403 143.135651,47.703770 
	C143.121429,48.000996 143.048828,48.023571 142.776886,48.023006 
	C142.334778,48.016472 142.164612,48.010498 141.994446,48.004528 
z"/>
<path fill="#F5F1F1" opacity="1.000000" stroke="none" 
	d="
M5.126122,52.920261 
	C5.452063,53.164001 5.732282,53.752281 5.987315,54.672058 
	C5.668220,54.423969 5.374311,53.844383 5.126122,52.920261 
z"/>
<path fill="#F5F1F1" opacity="1.000000" stroke="none" 
	d="
M13.127539,61.238022 
	C13.450192,61.039749 13.892230,61.056568 14.631759,61.226372 
	C14.368474,61.403942 13.807698,61.428528 13.127539,61.238022 
z"/>
<path fill="#F5F1F1" opacity="1.000000" stroke="none" 
	d="
M92.277481,36.971390 
	C92.429703,36.677719 92.890831,36.367947 93.662842,35.986610 
	C93.511276,36.261799 93.048836,36.608547 92.277481,36.971390 
z"/>
<path fill="#575451" opacity="1.000000" stroke="none" 
	d="
M206.148941,36.178078 
	C206.629883,35.943859 207.000214,35.964294 207.649200,35.979355 
	C207.516418,36.351120 207.104996,36.728252 206.348907,37.046162 
	C206.015594,36.802204 206.026978,36.617466 206.148941,36.178078 
z"/>
<path fill="#F5F1F1" opacity="1.000000" stroke="none" 
	d="
M80.273682,54.798573 
	C80.119133,54.591927 80.215477,54.196510 80.556076,53.603619 
	C80.708412,53.807362 80.616493,54.208584 80.273682,54.798573 
z"/>
<path fill="#F5F1F1" opacity="1.000000" stroke="none" 
	d="
M9.163403,19.207619 
	C9.222073,19.462282 8.957172,19.774151 8.400097,20.188902 
	C8.351892,19.949465 8.595861,19.607143 9.163403,19.207619 
z"/>
<path fill="#F5F1F1" opacity="1.000000" stroke="none" 
	d="
M79.025505,56.772652 
	C78.903091,56.522327 79.091805,56.148125 79.555565,55.608688 
	C79.665955,55.845230 79.501289,56.247005 79.025505,56.772652 
z"/>
<path fill="#F5F1F1" opacity="1.000000" stroke="none" 
	d="
M78.952217,21.660229 
	C78.710609,21.858702 78.485863,21.736601 78.343422,21.256023 
	C78.573997,21.137016 78.755112,21.284386 78.952217,21.660229 
z"/>
<path fill="#CDCAC8" opacity="1.000000" stroke="none" 
	d="
M152.304657,56.935432 
	C152.119324,56.635960 152.270584,56.406883 152.674088,56.120277 
	C152.854828,56.015530 153.015274,56.457798 153.057922,56.689117 
	C152.923630,56.933155 152.746689,56.945881 152.304657,56.935432 
z"/>
<path fill="#F5F1F1" opacity="1.000000" stroke="none" 
	d="
M7.133698,57.115845 
	C7.348888,57.057682 7.635695,57.252544 7.978815,57.709808 
	C7.758524,57.771099 7.481919,57.569981 7.133698,57.115845 
z"/>
<path fill="#F5F1F1" opacity="1.000000" stroke="none" 
	d="
M8.138424,58.209087 
	C8.336658,58.123852 8.645773,58.282951 9.067530,58.687248 
	C8.869883,58.772770 8.559594,58.613098 8.138424,58.209087 
z"/>
<path fill="#F5F1F1" opacity="1.000000" stroke="none" 
	d="
M35.159874,61.602852 
	C35.072865,61.503536 35.497589,61.323204 35.708511,61.416237 
	C35.919437,61.509270 35.620232,61.747860 35.620232,61.747860 
	C35.620232,61.747860 35.246887,61.702168 35.159874,61.602852 
z"/>
<path fill="#F5F1F1" opacity="1.000000" stroke="none" 
	d="
M71.147713,61.453770 
	C71.044052,61.330460 71.488121,61.101997 71.733398,61.148087 
	C71.844452,61.566139 71.602020,61.693775 71.147713,61.453770 
z"/>
<path fill="#F5F1F1" opacity="1.000000" stroke="none" 
	d="
M6.547883,22.195936 
	C6.670847,22.367361 6.605170,22.681116 6.316559,23.111538 
	C6.061124,22.895388 6.149663,22.598742 6.547883,22.195936 
z"/>
<path fill="#F5F1F1" opacity="1.000000" stroke="none" 
	d="
M79.883759,22.904087 
	C79.675568,22.935234 79.417564,22.724602 79.148056,22.253733 
	C79.458290,22.123343 79.690765,22.346279 79.883759,22.904087 
z"/>
<path fill="#F5F1F1" opacity="1.000000" stroke="none" 
	d="
M80.860397,25.150074 
	C80.659462,25.126879 80.472267,24.851877 80.322006,24.322742 
	C80.530670,24.345163 80.702415,24.621714 80.860397,25.150074 
z"/>
<path fill="#F5F1F1" opacity="1.000000" stroke="none" 
	d="
M104.549576,26.469181 
	C104.582054,26.524160 104.517090,26.414202 104.549576,26.469181 
z"/>
<path fill="#F5F1F1" opacity="1.000000" stroke="none" 
	d="
M228.717987,26.102360 
	C228.876862,26.327480 228.720703,26.588270 228.217987,26.842113 
	C228.106903,26.627270 228.284088,26.394892 228.717987,26.102360 
z"/>
<path fill="#F5F1F1" opacity="1.000000" stroke="none" 
	d="
M200.075073,40.337696 
	C200.374634,40.177120 200.604980,40.351582 200.836670,40.830189 
	C200.908676,41.040962 200.531845,41.036861 200.345337,41.046265 
	C200.158844,41.055664 200.076553,40.579369 200.075073,40.337696 
z"/>
<path fill="#FBE7ED" opacity="1.000000" stroke="none" 
	d="
M47.912987,28.004942 
	C49.346424,27.419344 50.749950,26.439699 52.219368,26.328171 
	C55.527580,26.077084 58.869774,26.317818 62.195690,26.245642 
	C67.252106,26.135906 72.059509,26.707230 74.300934,32.090347 
	C76.564522,37.526707 73.064957,40.796581 68.872940,43.990875 
	C70.995415,46.754097 73.042458,49.419113 75.365166,52.443020 
	C70.499680,53.573032 66.907845,53.385101 63.846043,49.414215 
	C62.321945,47.437584 59.556564,46.418060 56.480995,44.391083 
	C56.014584,48.253235 55.763176,50.335018 55.522812,52.325352 
	C48.382862,53.829102 48.135082,53.635757 48.124298,46.908325 
	C48.116299,41.917297 48.093586,36.926300 48.093895,31.106228 
	C48.044571,29.519760 47.978775,28.762352 47.912987,28.004942 
M63.167675,31.895229 
	C54.742054,31.786190 54.409428,32.112057 56.237492,39.118488 
	C58.279617,39.118488 60.498417,39.480923 62.520256,39.005585 
	C64.183983,38.614437 65.614082,37.229500 67.147720,36.285004 
	C66.109627,34.853271 65.071533,33.421543 63.167675,31.895229 
z"/>
<path fill="#FCEAF1" opacity="1.000000" stroke="none" 
	d="
M35.800190,47.846298 
	C30.082949,54.095249 20.292740,54.621258 12.098021,49.119770 
	C13.605967,43.662083 13.605967,43.662083 20.906059,46.156868 
	C23.578659,45.919281 25.632055,45.391064 27.685453,44.862843 
	C25.413963,43.910324 23.142473,42.957806 20.343624,41.784286 
	C19.535378,41.362511 19.251165,41.357723 18.963633,41.548923 
	C17.981726,41.295509 16.999819,41.042095 15.500303,40.578011 
	C14.612164,40.028690 14.241634,39.690041 13.871103,39.351391 
	C11.048387,35.903084 10.987898,32.421165 14.247047,28.554634 
	C15.200982,27.833876 15.651841,27.463451 16.102701,27.093027 
	C16.102701,27.093027 16.032337,27.017300 16.338619,27.042606 
	C16.976564,26.868591 17.308224,26.669271 17.639885,26.469952 
	C18.546446,26.334057 19.453009,26.198162 21.105610,26.048241 
	C23.565256,26.003513 25.278860,25.972811 26.992464,25.942108 
	C29.406412,26.917114 31.820362,27.892118 34.573883,29.302145 
	C33.379475,31.538792 31.845495,33.340416 31.133877,34.176197 
	C26.742214,33.552578 23.613605,33.108315 20.484999,32.664051 
	C20.331484,33.175125 20.177971,33.686195 20.024456,34.197269 
	C21.669786,34.832630 23.345669,35.399517 24.954256,36.117226 
	C28.598938,37.743393 32.210461,39.443874 35.848145,41.537010 
	C35.840614,43.922024 35.820400,45.884159 35.800190,47.846298 
z"/>
<path fill="#FBE2E9" opacity="1.000000" stroke="none" 
	d="
M37.945000,28.997425 
	C38.180187,28.177488 38.415379,27.357552 39.240559,26.311218 
	C41.209660,26.022509 42.588764,25.960196 43.967873,25.897882 
	C44.309917,26.398077 44.651962,26.898272 45.010262,28.063244 
	C45.093346,29.494705 45.160172,30.261387 45.226997,31.028070 
	C45.164280,34.666523 45.078426,38.304768 45.045532,41.943489 
	C45.014400,45.387691 45.038841,48.832397 45.038841,52.586624 
	C41.450882,52.938725 37.758186,54.676491 38.213768,47.976021 
	C38.200146,45.098766 38.131638,43.063087 38.123802,40.649300 
	C38.144375,39.508556 38.104275,38.745922 38.138199,37.740417 
	C38.159836,37.336594 38.107452,37.175636 38.122215,36.572651 
	C38.107906,33.752892 38.026451,31.375158 37.945000,28.997425 
z"/>
<path fill="#BA2D57" opacity="1.000000" stroke="none" 
	d="
M38.064175,37.983284 
	C38.104275,38.745922 38.144375,39.508556 37.751762,40.643818 
	C36.824520,41.049007 36.329990,41.081573 35.835464,41.114136 
	C32.210461,39.443874 28.598938,37.743393 24.954256,36.117226 
	C23.345669,35.399517 21.669786,34.832630 20.024456,34.197269 
	C20.177971,33.686195 20.331484,33.175125 20.484999,32.664051 
	C23.613605,33.108315 26.742214,33.552578 31.133877,34.176197 
	C31.845495,33.340416 33.379475,31.538792 34.913330,29.393532 
	C35.671085,29.031855 36.428963,29.013813 37.565922,28.996599 
	C38.026451,31.375158 38.107906,33.752892 37.941200,36.646950 
	C37.816753,37.436611 37.940464,37.709949 38.064175,37.983284 
z"/>
<path fill="#BC5474" opacity="1.000000" stroke="none" 
	d="
M35.848145,41.537010 
	C36.329990,41.081573 36.824520,41.049007 37.691086,41.021927 
	C38.131638,43.063087 38.200146,45.098766 38.158073,47.558971 
	C37.546986,47.968224 37.046474,47.952950 36.173080,47.891983 
	C35.820400,45.884159 35.840614,43.922024 35.848145,41.537010 
z"/>
<path fill="#C8607F" opacity="1.000000" stroke="none" 
	d="
M27.294619,44.898834 
	C25.632055,45.391064 23.578659,45.919281 21.271051,46.191582 
	C22.979156,45.602055 24.941469,45.268440 27.294619,44.898834 
z"/>
<path fill="#BA3B61" opacity="1.000000" stroke="none" 
	d="
M45.560608,31.020737 
	C45.160172,30.261387 45.093346,29.494705 45.120308,28.351500 
	C45.888920,27.981188 46.563736,27.987398 47.575768,27.999275 
	C47.978775,28.762352 48.044571,29.519760 48.003357,30.646027 
	C47.228977,31.014389 46.561596,31.013895 45.560608,31.020737 
z"/>
<path fill="#BA2D57" opacity="1.000000" stroke="none" 
	d="
M43.751762,25.651621 
	C42.588764,25.960196 41.209660,26.022509 39.416996,26.043848 
	C40.059826,22.357391 42.026150,25.613867 43.751762,25.651621 
z"/>
<path fill="#C1466A" opacity="1.000000" stroke="none" 
	d="
M26.746767,25.675854 
	C25.278860,25.972811 23.565256,26.003513 21.433022,25.939091 
	C22.843285,25.699177 24.672176,25.554388 26.746767,25.675854 
z"/>
<path fill="#C1466A" opacity="1.000000" stroke="none" 
	d="
M15.778878,27.086174 
	C15.651841,27.463451 15.200982,27.833876 14.453323,28.253994 
	C14.589368,27.895565 15.022212,27.487442 15.778878,27.086174 
z"/>
<path fill="#C8607F" opacity="1.000000" stroke="none" 
	d="
M13.893009,39.653568 
	C14.241634,39.690041 14.612164,40.028690 15.118544,40.596420 
	C14.807899,40.535583 14.361407,40.245663 13.893009,39.653568 
z"/>
<path fill="#C1466A" opacity="1.000000" stroke="none" 
	d="
M17.323975,26.404560 
	C17.308224,26.669271 16.976564,26.868591 16.350500,27.092907 
	C16.373419,26.858326 16.690741,26.598749 17.323975,26.404560 
z"/>
<path fill="#C8607F" opacity="1.000000" stroke="none" 
	d="
M19.109812,41.704437 
	C19.251165,41.357723 19.535378,41.362511 19.949425,41.745472 
	C20.082582,41.927654 19.660782,41.997417 19.660782,41.997417 
	C19.660782,41.997417 19.255991,41.859951 19.109812,41.704437 
z"/>
<path fill="#63615F" opacity="1.000000" stroke="none" 
	d="
M146.822601,35.052021 
	C146.822601,35.052021 146.548691,35.068062 146.412506,35.051601 
	C146.302505,34.022457 146.328705,33.009773 146.668396,31.989895 
	C146.981888,31.982704 146.976837,31.972563 147.199463,32.316502 
	C147.222260,33.457634 147.022430,34.254829 146.822601,35.052021 
z"/>
<path fill="#FEFCFC" opacity="1.000000" stroke="none" 
	d="
M135.517822,29.533340 
	C135.465607,29.562956 135.570038,29.503727 135.517822,29.533340 
z"/>
<path fill="#C3C2C0" opacity="1.000000" stroke="none" 
	d="
M149.139526,30.051579 
	C149.425858,30.047459 149.613983,30.285210 149.747543,30.550444 
	C149.767258,30.589600 149.528641,30.758825 149.166870,30.856806 
	C148.957336,30.664612 148.990509,30.483477 149.139526,30.051579 
z"/>
<path fill="#FEFCFC" opacity="1.000000" stroke="none" 
	d="
M221.848236,31.620459 
	C221.920273,31.802717 221.455521,31.853170 221.455521,31.853170 
	C221.455521,31.853170 221.125320,31.522243 221.128433,31.288517 
	C221.423187,31.053541 221.638077,31.181345 221.848236,31.620459 
z"/>
<path fill="#777572" opacity="1.000000" stroke="none" 
	d="
M224.365326,34.254971 
	C224.591507,34.263054 224.641373,34.453289 224.691223,34.643524 
	C224.523834,34.574718 224.356430,34.505920 224.365326,34.254971 
z"/>
<path fill="#6B6765" opacity="1.000000" stroke="none" 
	d="
M100.088341,49.296555 
	C100.548065,48.707916 101.011414,48.382256 101.758057,48.081329 
	C102.256355,48.361855 102.471352,48.617641 102.767670,49.208103 
	C102.612984,50.002617 102.376976,50.462456 102.140961,50.922295 
	C101.654053,50.713768 101.167152,50.505249 100.435776,50.186401 
	C100.158195,49.903893 100.125084,49.731712 100.088341,49.296555 
z"/>
<path fill="#FEFCFC" opacity="1.000000" stroke="none" 
	d="
M166.209213,32.257835 
	C167.236160,31.586729 168.234680,31.269976 169.233215,30.953224 
	C169.368820,31.697926 169.504425,32.442627 169.640030,33.187328 
	C168.486954,32.995617 167.333878,32.803905 166.209213,32.257835 
z"/>
<path fill="#FEFCFC" opacity="1.000000" stroke="none" 
	d="
M172.451202,31.532551 
	C172.417923,31.476778 172.484467,31.588322 172.451202,31.532551 
z"/>
<path fill="#E9E7E5" opacity="1.000000" stroke="none" 
	d="
M241.665802,33.790825 
	C240.108276,34.212456 238.722336,34.262768 237.336365,34.313080 
	C237.293594,33.080627 236.971237,31.761421 237.316315,30.649321 
	C237.513016,30.015385 238.798935,29.719427 239.594376,29.271278 
	C240.342041,30.654016 241.089691,32.036758 241.665802,33.790825 
z"/>
<path fill="#D9D6D3" opacity="1.000000" stroke="none" 
	d="
M216.407593,31.129528 
	C216.049835,30.761772 216.004730,30.349632 215.947418,29.626785 
	C216.486694,29.484324 217.038132,29.652571 217.589584,29.820820 
	C217.299805,30.242262 217.010025,30.663704 216.407593,31.129528 
z"/>
<path fill="#F5F1F1" opacity="1.000000" stroke="none" 
	d="
M146.164612,56.030128 
	C146.023392,55.830463 146.175049,55.557110 146.653168,55.260078 
	C146.785049,55.479542 146.611008,55.719555 146.164612,56.030128 
z"/>
<path fill="#DDD9D6" opacity="1.000000" stroke="none" 
	d="
M200.840805,36.631798 
	C200.853699,37.011993 200.404251,36.923580 200.177551,36.957821 
	C199.662277,36.670902 199.321228,36.382858 199.094193,36.022903 
	C198.064697,34.390675 197.067368,32.738163 196.058456,31.092957 
	C197.062897,30.480835 198.067322,29.868711 199.071762,29.256590 
	C199.704010,31.101934 200.371582,32.936470 200.942093,34.800701 
	C201.074158,35.232273 200.874771,35.765274 200.840805,36.631798 
z"/>
<path fill="#CDCAC8" opacity="1.000000" stroke="none" 
	d="
M141.779358,48.165104 
	C142.164612,48.010498 142.334778,48.016472 142.758362,48.056190 
	C142.574554,48.565243 142.137360,49.040543 141.700165,49.515839 
	C141.654861,49.119118 141.609558,48.722397 141.779358,48.165104 
z"/>
<path fill="#D4D2CF" opacity="1.000000" stroke="none" 
	d="
M221.896744,53.024406 
	C221.869904,52.858601 221.843079,52.692799 221.734863,52.286541 
	C222.054565,52.113846 222.455658,52.181606 223.047913,52.497742 
	C223.239044,52.746120 223.053131,52.952381 222.719879,53.021782 
	C222.386627,53.091179 221.896744,53.024406 221.896744,53.024406 
z"/>
<path fill="#DDD9D6" opacity="1.000000" stroke="none" 
	d="
M102.524757,50.989052 
	C102.376976,50.462456 102.612984,50.002617 102.997986,49.319832 
	C104.107246,49.337864 105.067520,49.578838 106.027802,49.819813 
	C106.000237,50.125164 105.972679,50.430511 105.945122,50.735859 
	C104.932930,50.842510 103.920738,50.949162 102.524757,50.989052 
z"/>
<path fill="#474543" opacity="1.000000" stroke="none" 
	d="
M116.664825,30.229923 
	C117.087570,29.974846 117.285828,29.984470 117.789268,30.416687 
	C118.166779,31.652714 118.239098,32.466148 118.311417,33.279579 
	C118.392647,33.624264 118.473885,33.968948 118.630196,34.569229 
	C118.395798,34.868771 118.086319,34.912716 117.310898,35.009361 
	C116.710091,33.539585 116.575218,32.017105 116.664825,30.229923 
z"/>
<path fill="#575451" opacity="1.000000" stroke="none" 
	d="
M216.777527,50.629936 
	C216.827560,50.921928 216.877579,51.213924 217.009109,51.942963 
	C215.943542,52.457771 214.796494,52.535545 213.308350,52.523643 
	C212.972595,52.158562 212.978912,51.883175 213.371552,51.359993 
	C214.763763,50.951435 215.770645,50.790684 216.777527,50.629936 
z"/>
<path fill="#ECEBE8" opacity="1.000000" stroke="none" 
	d="
M221.673340,53.016663 
	C221.896744,53.024406 222.386627,53.091179 222.630280,53.127846 
	C223.157089,53.547333 223.440247,53.930153 223.850128,54.514168 
	C223.238586,54.797207 222.500305,54.879047 221.386505,54.936058 
	C221.010971,54.911232 221.004044,54.467224 221.004822,53.988541 
	C221.004730,53.338894 221.003845,53.167927 221.002960,52.996964 
	C221.002960,52.996964 221.449921,53.008923 221.673340,53.016663 
z"/>
<path fill="#F5F1F1" opacity="1.000000" stroke="none" 
	d="
M220.824249,53.081730 
	C221.003845,53.167927 221.004730,53.338894 221.001450,53.766541 
	C220.880035,53.737644 220.762787,53.452068 220.824249,53.081730 
z"/>
<path fill="#CDCAC8" opacity="1.000000" stroke="none" 
	d="
M187.194260,31.093142 
	C186.873779,30.471794 186.930984,29.895363 186.988190,29.318932 
	C187.627365,29.604013 188.266541,29.889093 188.905701,30.174171 
	C188.461105,30.495464 188.016525,30.816761 187.194260,31.093142 
z"/>
<path fill="#8B8786" opacity="1.000000" stroke="none" 
	d="
M118.720360,33.223049 
	C118.239098,32.466148 118.166779,31.652714 118.086662,30.430767 
	C118.078865,30.022251 118.485390,29.979729 118.861366,30.286627 
	C120.193375,30.790804 121.149406,30.988085 122.105438,31.185364 
	C122.860619,31.476736 123.615807,31.768108 124.690613,32.033859 
	C125.010231,32.008236 125.016640,32.485691 124.971634,32.720070 
	C122.994194,33.025139 121.061745,33.095829 118.720360,33.223049 
z"/>
<path fill="#ECEBE8" opacity="1.000000" stroke="none" 
	d="
M147.190323,35.192276 
	C147.022430,34.254829 147.222260,33.457634 147.194351,32.311058 
	C147.955933,32.713120 148.945221,33.464561 149.887451,34.570778 
	C149.079605,35.061207 148.318832,35.196869 147.190323,35.192276 
z"/>
<path fill="#282726" opacity="1.000000" stroke="none" 
	d="
M151.701050,30.232685 
	C152.097504,31.718193 152.196472,33.435242 152.181793,35.569714 
	C151.754868,35.800217 151.441589,35.613293 150.981186,35.190727 
	C151.023911,33.458134 151.213730,31.961178 151.701050,30.232685 
z"/>
<path fill="#E3E1E0" opacity="1.000000" stroke="none" 
	d="
M216.693527,50.483475 
	C215.770645,50.790684 214.763763,50.951435 213.374069,51.152847 
	C212.730194,50.981251 212.469131,50.768993 212.121262,50.319176 
	C213.275772,49.854031 214.517075,49.626438 216.048798,49.560684 
	C216.378143,49.949867 216.468246,50.154697 216.693527,50.483475 
z"/>
<path fill="#D9D7D5" opacity="1.000000" stroke="none" 
	d="
M122.276840,30.838013 
	C121.149406,30.988085 120.193375,30.790804 119.064735,30.266407 
	C119.650093,29.656200 120.408051,29.373114 121.485504,29.089081 
	C122.019417,29.555645 122.233833,30.023155 122.276840,30.838013 
z"/>
<path fill="#C0325C" opacity="1.000000" stroke="none" 
	d="
M63.600555,31.942522 
	C65.071533,33.421543 66.109627,34.853271 67.147720,36.285004 
	C65.614082,37.229500 64.183983,38.614437 62.520256,39.005585 
	C60.498417,39.480923 58.279617,39.118488 56.237492,39.118488 
	C54.409428,32.112057 54.742054,31.786190 63.600555,31.942522 
z"/>
<path fill="#BC5474" opacity="1.000000" stroke="none" 
	d="
M38.138199,37.740417 
	C37.940464,37.709949 37.816753,37.436611 37.874054,37.088974 
	C38.107452,37.175636 38.159836,37.336594 38.138199,37.740417 
z"/>
</svg>